<svg id="Layer_1" data-name="Layer 1" xmlns="http://www.w3.org/2000/svg" xmlns:xlink="http://www.w3.org/1999/xlink" viewBox="0 0 480 512"><defs><style>.cls-1{fill:none;}.cls-2{clip-path:url(#clip-path);}</style><clipPath id="clip-path"><rect class="cls-1" width="480" height="512"/></clipPath></defs><title>add-product</title><g class="cls-2"><path d="M345,242c-74.44,0-135,60.56-135,135s60.56,135,135,135,135-60.56,135-135S419.44,242,345,242m75,150H360v60H330V392H270V362h60V302h30v60h60Z"/><rect x="180" width="90" height="152"/><path d="M300,0V182H150V0H0V452H198.21A163.91,163.91,0,0,1,180,377c0-91,74-165,165-165a164.24,164.24,0,0,1,105,37.82V0ZM150,392H60V362h90Z"/></g></svg>