<svg id="Layer_1" data-name="Layer 1" xmlns="http://www.w3.org/2000/svg" xmlns:xlink="http://www.w3.org/1999/xlink" viewBox="0 0 496.03 512"><defs><style>.cls-1{fill:none;}.cls-2{clip-path:url(#clip-path);}</style><clipPath id="clip-path" transform="translate(0)"><rect class="cls-1" width="496.03" height="512"/></clipPath></defs><title>availability</title><g class="cls-2"><path d="M467.84,334.71C435.1,422.77,350,481.92,256,481.92,131.43,481.92,30.08,380.57,30.08,256S131.43,30.08,256,30.08A224.14,224.14,0,0,1,413.37,93.85l-29.28-2.57-2.62,30,78.81,6.91,6.91-78.81-30-2.63L434.93,73a257.51,257.51,0,0,0-64.14-45.84A256.06,256.06,0,0,0,0,256a256,256,0,0,0,496,89.2Z" transform="translate(0)"/><path d="M255.62,98.89C169,98.89,98.51,169.37,98.51,256S169,413.11,255.62,413.11,412.73,342.63,412.73,256,342.25,98.89,255.62,98.89M316.12,271H240.94V163.16H271V241h45.1Z" transform="translate(0)"/></g></svg>