<svg id="Layer_1" data-name="Layer 1" xmlns="http://www.w3.org/2000/svg" xmlns:xlink="http://www.w3.org/1999/xlink" viewBox="0 0 160.58 139.16"><defs><style>.cls-1{fill:none;}.cls-2{clip-path:url(#clip-path);}.cls-3{fill:#fff;}</style><clipPath id="clip-path" transform="translate(0 0)"><rect class="cls-1" width="160.58" height="139.16"/></clipPath></defs><title>cameraDv</title><g class="cls-2"><path d="M154.31,27.68a20.63,20.63,0,0,0-15.14-6.27H120.44L116.17,10A15.5,15.5,0,0,0,110.36,3a14.9,14.9,0,0,0-8.66-3H58.88a14.92,14.92,0,0,0-8.66,3A15.56,15.56,0,0,0,44.41,10L40.15,21.41H21.41A20.65,20.65,0,0,0,6.27,27.68,20.63,20.63,0,0,0,0,42.82v74.93a20.63,20.63,0,0,0,6.27,15.14,20.65,20.65,0,0,0,15.14,6.27H139.17a21.41,21.41,0,0,0,21.41-21.41V42.82a20.63,20.63,0,0,0-6.27-15.14m-47.55,79.08a36.08,36.08,0,0,1-26.47,11,36.08,36.08,0,0,1-26.47-11,36.1,36.1,0,0,1-11-26.47,36.08,36.08,0,0,1,11-26.47,36.06,36.06,0,0,1,26.47-11,36.08,36.08,0,0,1,26.47,11,36.08,36.08,0,0,1,11,26.47,36.11,36.11,0,0,1-11,26.47" transform="translate(0 0)"/><path class="cls-3" d="M104.38,80.29a24.12,24.12,0,0,1-24.09,24.08A24.12,24.12,0,0,1,56.2,80.29,24.14,24.14,0,0,1,80.29,56.2a24.14,24.14,0,0,1,24.09,24.09" transform="translate(0 0)"/></g></svg>