<?xml version="1.0" encoding="utf-8"?>
<!-- Generator: Adobe Illustrator 23.0.5, SVG Export Plug-In . SVG Version: 6.00 Build 0)  -->
<svg version="1.1" id="Capa_1" xmlns="http://www.w3.org/2000/svg" xmlns:xlink="http://www.w3.org/1999/xlink" x="0px" y="0px"
	 viewBox="0 0 755.2 850.4" style="enable-background:new 0 0 755.2 850.4;" xml:space="preserve">
<style type="text/css">
	.st0{fill:#08C4CB;}
	.st1{fill:#FFFFFF;}
</style>
<path class="st0" d="M755.2,377.6C755.2,169.1,586.2,0,377.6,0S0,169.1,0,377.6c0,167.2,108.7,309.1,259.4,358.7l118.1,114.1
	l117.7-113.8C646.1,687.2,755.2,545.1,755.2,377.6z"/>
<g>
	<path class="st1" d="M483.5,380.9c-62.6,0-113.6,51-113.6,113.6c0,62.6,51,113.6,113.6,113.6c62.6,0,113.6-51,113.6-113.6
		C597.1,431.9,546.2,380.9,483.5,380.9z M517.2,493.7c2.4,5,3.7,10.6,3.7,16.2c0,11.9-5.7,23.2-15.4,30.2c-0.7,0.5-1.6,0.6-2.4,0.3
		c-0.8-0.3-1.4-1-1.6-1.9c-3.2-15.6-10.4-26.1-18-26.1c-0.7,0-1.5,0.1-2.2,0.3c-6.6,1.8-12.6,11.4-15.6,25v0
		c-0.1,0.3-0.1,0.5-0.2,0.8c-0.2,0.9-0.8,1.6-1.6,1.9c-0.8,0.3-1.7,0.2-2.4-0.3c-9.6-7-15.4-18.3-15.4-30.2c0-5.6,1.2-11.1,3.7-16.2
		c0.2-0.5,0.3-1,0.3-1.5c0-0.6-0.2-1.2-0.5-1.8c-9.4-15.7-10.7-30-3.5-37.2c6.5-6.5,18.2-6.2,32.1,0.7c3.3,1.6,7.1,1.6,10.4,0
		c11.8-5.8,22-6.9,28.8-3.2c0.6,0.3,1.2,0.7,1.8,1.1c0,0,0,0,0.1,0c0.5,0.4,1,0.8,1.5,1.3c7.2,7.2,5.9,21.5-3.5,37.2
		c-0.3,0.5-0.5,1.2-0.5,1.8C516.9,492.7,517,493.2,517.2,493.7z"/>
	<path class="st1" d="M343.7,494.5c0-77.1,62.7-139.8,139.8-139.8c15.3,0,29.9,2.6,43.7,7.1v-47.5H177.7v158.4
		c0,26.6,21.5,48.1,48.1,48.1h120.5C344.7,512.2,343.7,503.5,343.7,494.5z"/>
	<path class="st1" d="M479.2,222.8h-15.3v34.9c0,13.3-10.8,24-24,24c-13.2,0-24-10.8-24-24v-34.9H289.1v34.9c0,13.3-10.8,24-24,24
		c-13.3,0-24-10.8-24-24v-34.9h-15.3c-26.6,0-48.1,21.5-48.1,48.1v36h349.5v-36C527.2,244.3,505.7,222.8,479.2,222.8z"/>
	<path class="st1" d="M281.8,205.4c0-9.2-7.5-16.7-16.7-16.7c-9.2,0-16.7,7.5-16.7,16.7v52.4c0,9.2,7.5,16.7,16.7,16.7
		c9.2,0,16.7-7.5,16.7-16.7V205.4z"/>
	<path class="st1" d="M456.5,205.4c0-9.2-7.5-16.7-16.7-16.7c-9.2,0-16.7,7.5-16.7,16.7v52.4c0,9.2,7.5,16.7,16.7,16.7
		c9.2,0,16.7-7.5,16.7-16.7V205.4z"/>
</g>
</svg>
