<svg id="Layer_1" data-name="Layer 1" xmlns="http://www.w3.org/2000/svg" xmlns:xlink="http://www.w3.org/1999/xlink" viewBox="0 0 836.4 941.8"><defs><style>.cls-1{fill:none;}.cls-2{clip-path:url(#clip-path);}.cls-3{fill:#006ed1;}.cls-4{fill:#fff;}</style><clipPath id="clip-path"><rect class="cls-1" width="836.4" height="941.82"/></clipPath></defs><title>clinci</title><g class="cls-2"><path class="cls-3" d="M836.4,418.2C836.4,187.2,649.2,0,418.2,0S0,187.2,0,418.2C0,603.4,120.4,760.5,287.2,815.5L418,941.8l130.4-126c167.2-54.8,288-212.1,288-397.6"/></g><path class="cls-4" d="M608.1,459.1H532.2V617.9l86-.4V469.4A10.4,10.4,0,0,0,608.1,459.1ZM585.2,584.8a10,10,0,0,1-20,0V566.1a10,10,0,0,1,20,0Zm0-70.2a10,10,0,1,1-20,0V495.8a10,10,0,1,1,20,0Z"/><path class="cls-4" d="M320.2,618.8l195-.8V355.1h-195ZM453.7,384.1h18.1a10,10,0,1,1,0,20H453.7a10,10,0,1,1,0-20Zm0,47h18.1a10,10,0,1,1,0,20H453.7a10,10,0,1,1,0-20Zm0,47h18.1a10,10,0,1,1,0,20H453.7a10,10,0,1,1,0-20Zm0,48h18.1a10,10,0,1,1,0,20H453.7a10,10,0,1,1,0-20Zm0,48h18.1a10,10,0,1,1,0,20H453.7a10,10,0,1,1,0-20Zm-93.3-190h18.5a10,10,0,0,1,0,20H360.4a10,10,0,0,1,0-20Zm0,47h18.5a10,10,0,0,1,0,20H360.4a10,10,0,0,1,0-20Zm0,47h18.5a10,10,0,0,1,0,20H360.4a10,10,0,0,1,0-20Zm0,47h18.5a10,10,0,0,1,0,20H360.4a10,10,0,0,1,0-20Zm0,47h18.5a10,10,0,0,1,0,20H360.4a10,10,0,0,1,0-20Z"/><path class="cls-4" d="M218.2,401V619.3l85-.4V391.1H228.3A10.1,10.1,0,0,0,218.2,401Zm31,24.5a10,10,0,0,1,20,0v18.8a10,10,0,0,1-20,0Zm0,70.3a10,10,0,0,1,20,0v18.8a10,10,0,0,1-20,0Zm0,70.3a10,10,0,0,1,20,0v18.7a10,10,0,0,1-20,0Z"/><path class="cls-4" d="M397.1,240.4a1.5,1.5,0,0,1-.2.9,24.1,24.1,0,0,0-2.3,10.2,23.5,23.5,0,0,0,9.7,19.1,1.6,1.6,0,0,0,2.5-.9c2.1-9.9,6.6-16.6,11.4-16.6s9.4,6.7,11.4,16.6a1.6,1.6,0,0,0,1,1.1,1.4,1.4,0,0,0,1.5-.2,23.5,23.5,0,0,0,9.7-19.1,22.7,22.7,0,0,0-2.3-10.2,2.9,2.9,0,0,1-.2-.9,2.7,2.7,0,0,1,.3-1.2c5.9-9.9,6.8-18.9,2.2-23.5s-11.5-3.9-20.3.4a7.6,7.6,0,0,1-6.6,0c-8.8-4.3-16.2-4.5-20.3-.4s-3.7,13.6,2.2,23.5A2.7,2.7,0,0,1,397.1,240.4Z"/><path class="cls-4" d="M534.2,266.7a9.6,9.6,0,0,0-9.5-9.6H496.6c-.1.7-.3,1.5-.4,2.2a79.3,79.3,0,0,1-156,0l-.3-2.2H311.5c-5.5,0-10.3,4-10.3,9.6v65.4a9,9,0,0,0,9.1,9H525.2a9,9,0,0,0,9-9Z"/><path class="cls-4" d="M418.2,309.2a67.4,67.4,0,0,0,66.2-55.1,62.6,62.6,0,0,0,1.2-12.3,66.4,66.4,0,0,0-.5-7.7,67.3,67.3,0,0,0-133.8,0,66.2,66.2,0,0,0-.4,7.7,71.2,71.2,0,0,0,1.1,12.3A67.5,67.5,0,0,0,418.2,309.2Zm-45.7-75.1a46.4,46.4,0,0,1,91.4,0,49,49,0,0,1,.7,7.7,45.1,45.1,0,0,1-1.7,12.3,46.3,46.3,0,0,1-89.4,0,48.7,48.7,0,0,1-1-20Z"/></svg>