<?xml version="1.0" encoding="utf-8"?>
<!-- Generator: Adobe Illustrator 23.0.5, SVG Export Plug-In . SVG Version: 6.00 Build 0)  -->
<svg version="1.1" id="Layer_1" xmlns="http://www.w3.org/2000/svg" xmlns:xlink="http://www.w3.org/1999/xlink" x="0px" y="0px"
	 viewBox="0 0 152.9 172.1" style="enable-background:new 0 0 152.9 172.1;" xml:space="preserve">
<style type="text/css">
	.st0{fill:#FFFFFF;}
	.st1{fill:url(#SVGID_1_);}
	.st2{fill:url(#SVGID_2_);}
	.st3{fill:url(#SVGID_3_);}
	.st4{fill:url(#SVGID_4_);}
	.st5{fill:url(#SVGID_5_);}
	.st6{fill:url(#SVGID_6_);}
	.st7{fill:url(#SVGID_7_);}
	.st8{fill:url(#SVGID_8_);}
	.st9{fill:url(#SVGID_9_);}
	.st10{fill:#EDF2F4;}
	.st11{fill:#F2F6F7;}
	.st12{fill:#F4F7F9;}
	.st13{fill:url(#SVGID_10_);}
	.st14{opacity:0.9;fill:url(#SVGID_11_);}
	.st15{opacity:0.8;fill:url(#SVGID_12_);}
	.st16{opacity:0.7;fill:url(#SVGID_13_);}
	.st17{opacity:0.9;}
	.st18{opacity:0.8;}
	.st19{opacity:0.7;}
	.st20{fill:url(#SVGID_14_);}
	.st21{opacity:0.9;fill:url(#SVGID_15_);}
	.st22{opacity:0.8;fill:url(#SVGID_16_);}
	.st23{opacity:0.7;fill:url(#SVGID_17_);}
	.st24{fill:url(#SVGID_18_);}
	.st25{fill:url(#SVGID_19_);}
	.st26{fill:none;}
</style>
<g>
	<g>
		<g>
			<g>
				<polygon points="152.9,124.3 125.3,172.1 49.7,172.1 77.3,124.3 77.3,124.3 				"/>
			</g>
			<g>
				<polygon points="77.3,124.3 49.7,172.1 49.7,172.1 0,86 0,86 55.2,86 55.2,86 				"/>
			</g>
			<g>
				<polygon points="135.2,0 107.7,47.8 77.3,47.8 77.3,47.8 49.7,0 49.7,0 				"/>
			</g>
			<g>
				<polygon points="77.3,47.8 55.2,86 0,86 49.7,0 				"/>
			</g>
		</g>
	</g>
	<polygon points="77.3,47.8 55.2,86 0,86 49.7,0 	"/>
	<polygon class="st17" points="77.3,124.3 49.7,172.1 49.7,172.1 0,86 0,86 55.2,86 55.2,86 	"/>
	<polygon class="st18" points="152.9,124.3 125.3,172.1 49.7,172.1 77.3,124.3 77.3,124.3 	"/>
	<polygon class="st19" points="135.2,0 107.7,47.8 77.3,47.8 77.3,47.8 49.7,0 49.7,0 	"/>
</g>
</svg>
