<svg id="Layer_1" data-name="Layer 1" xmlns="http://www.w3.org/2000/svg" viewBox="0 0 227.25 212.48"><defs><style>.cls-1{fill:#b5bcc4;opacity:0.4;}.cls-2{fill:#2da8fe;}</style></defs><title>comment2</title><path class="cls-1" d="M202.74.29,61.7,0A24.53,24.53,0,0,0,37.19,24.5V75.85a4.12,4.12,0,0,1,4.13-4.13H74.65a4.06,4.06,0,0,1-.28-1.48,4.13,4.13,0,0,1,4.13-4.13H185.93a4.13,4.13,0,0,1,0,8.26H98.88a4.06,4.06,0,0,1,.28,1.48A4.13,4.13,0,0,1,95,80H41.32a4.12,4.12,0,0,1-4.13-4.13v24.79a4.12,4.12,0,0,1,4.13-4.13H74.65A4.06,4.06,0,0,1,74.37,95,4.13,4.13,0,0,1,78.5,90.9H185.93a4.13,4.13,0,0,1,0,8.26H152.59a4.06,4.06,0,0,1,.28,1.48,4.12,4.12,0,0,1-4.13,4.13H41.32a4.12,4.12,0,0,1-4.13-4.13v11.21a24.25,24.25,0,0,0,2.13,10,4.08,4.08,0,0,1,2-.52H148.74a4.13,4.13,0,0,1,0,8.26h-104a24.43,24.43,0,0,0,16.91,6.79l68.69.28,27.42,30.15,12.68,13.95a4.1,4.1,0,0,0,3.05,1.35,4.26,4.26,0,0,0,1.49-.27,4.13,4.13,0,0,0,2.64-3.86V136.63h25.08a24.52,24.52,0,0,0,24.51-24.49V24.79A24.53,24.53,0,0,0,202.74.29ZM185.93,49.58H132.22a4.13,4.13,0,1,1,0-8.26h53.72a24.43,24.43,0,0,1,3.16,6.78A4.15,4.15,0,0,1,185.93,49.58Z"/><path class="cls-2" d="M189.1,48.1a24.57,24.57,0,0,0-23.55-17.7l-128.36.26-12.69,0A24.53,24.53,0,0,0,0,55.19v87.35A24.52,24.52,0,0,0,24.5,167H49.58v41.32a4.14,4.14,0,0,0,2.65,3.86,4.21,4.21,0,0,0,1.48.27,4.13,4.13,0,0,0,3.06-1.35L96.86,167l60.94-.25,7.76,0a24.53,24.53,0,0,0,24.5-24.5V54.9A24.61,24.61,0,0,0,189.1,48.1ZM41.32,71.72H95a4.12,4.12,0,0,1,3.85,2.65,4.06,4.06,0,0,1,.28,1.48A4.13,4.13,0,0,1,95,80H41.32a4.13,4.13,0,0,1,0-8.26Zm0,24.79H148.74a4.13,4.13,0,0,1,0,8.26H41.32a4.13,4.13,0,0,1,0-8.26Zm0,33.05a4.13,4.13,0,0,1-2-7.74,4.08,4.08,0,0,1,2-.52H148.74a4.13,4.13,0,0,1,0,8.26Z"/></svg>