<?xml version="1.0" encoding="utf-8"?>
<!-- Generator: Adobe Illustrator 23.0.5, SVG Export Plug-In . SVG Version: 6.00 Build 0)  -->
<svg version="1.1" id="Capa_1" xmlns="http://www.w3.org/2000/svg" xmlns:xlink="http://www.w3.org/1999/xlink" x="0px" y="0px"
	 viewBox="0 0 499.6 512" style="enable-background:new 0 0 499.6 512;" xml:space="preserve">
<path d="M492.4,164.7L259.4,3c-5.8-4-13.4-4-19.2,0L7.2,164.7C2.7,167.8,0,173,0,178.5v316.6c0,9.3,7.5,16.8,16.8,16.8h466
	c9.3,0,16.8-7.5,16.8-16.8V178.5C499.6,173,496.9,167.8,492.4,164.7z M146,355.5L33.7,459.3V225.2L146,355.5z M249.8,305.3
	l187.1,173H62.7L249.8,305.3z M356.2,357.8L466,226.4v232.9L356.2,357.8z M249.8,37.3l209,145L331.5,334.9L261.3,270
	c-6.5-6-16.4-6-22.9,0l-67.7,62.6L41.1,182.2L249.8,37.3z"/>
</svg>
