<?xml version="1.0" encoding="utf-8"?>
<!-- Generator: Adobe Illustrator 23.0.5, SVG Export Plug-In . SVG Version: 6.00 Build 0)  -->
<svg version="1.1" id="Current_location" xmlns="http://www.w3.org/2000/svg" xmlns:xlink="http://www.w3.org/1999/xlink" x="0px"
	 y="0px" viewBox="0 0 328 328" style="enable-background:new 0 0 328 328;" xml:space="preserve">
<style type="text/css">
	.st0{opacity:0.3;fill:#00CCBB;enable-background:new    ;}
	.st1{opacity:0.4;fill:#00CCBB;enable-background:new    ;}
	.st2{fill:#00CCBB;}
	.st3{fill:none;stroke:#FFFFFF;stroke-width:10;}
	.st4{fill:#FFFFFF;}
</style>
<circle id="Ellipse_5_copy" class="st0" cx="164" cy="164" r="164"/>
<circle id="Ellipse_5_copy_2" class="st1" cx="162.9" cy="162.9" r="97.3"/>
<g>
	<circle id="circle" class="st2" cx="162.9" cy="162.9" r="27.5"/>
</g>
<g>
	<circle class="st3" cx="162.9" cy="162.9" r="27.5"/>
</g>
<path class="st4" d="M171.3,162.3c0-0.2,0-0.3,0.1-0.4c2.4-4,2.7-7.5,0.9-9.4c-1.6-1.6-4.6-1.6-8.1,0.2c-0.8,0.4-1.8,0.4-2.6,0
	c-3.5-1.7-6.4-1.8-8.1-0.2c-1.8,1.8-1.5,5.4,0.9,9.4c0.1,0.1,0.1,0.3,0.1,0.4c0,0.1,0,0.3-0.1,0.4c-0.6,1.3-0.9,2.7-0.9,4.1
	c0,3,1.4,5.8,3.9,7.6c0.2,0.1,0.4,0.2,0.6,0.1c0.2-0.1,0.4-0.3,0.4-0.5c0.8-3.9,2.6-6.6,4.5-6.6c1.9,0,3.7,2.6,4.5,6.6
	c0,0.2,0.2,0.4,0.4,0.5c0.2,0.1,0.4,0,0.6-0.1c2.4-1.8,3.9-4.6,3.9-7.6c0-1.4-0.3-2.8-0.9-4.1C171.3,162.6,171.3,162.4,171.3,162.3z
	"/>
</svg>
