<svg id="Layer_1" data-name="Layer 1" xmlns="http://www.w3.org/2000/svg" xmlns:xlink="http://www.w3.org/1999/xlink" viewBox="0 0 511.05 485.5"><defs><style>.cls-1{fill:none;}.cls-2{clip-path:url(#clip-path);}</style><clipPath id="clip-path" transform="translate(0 0)"><rect class="cls-1" width="511.05" height="485.5"/></clipPath></defs><title>Detail-icon-4</title><g class="cls-2"><path d="M255.53,0C114.63,0,0,103.16,0,230c0,44.33,14,87.27,40.61,124.39-5,55.68-18.52,97-38.11,116.6a8.52,8.52,0,0,0,6,14.54,7.91,7.91,0,0,0,1.18-.09c3.45-.48,83.58-12,141.55-45.47a277.23,277.23,0,0,0,104.28,20c140.89,0,255.52-103.17,255.52-230S396.42,0,255.53,0M136.28,264A34.07,34.07,0,1,1,170.35,230,34.1,34.1,0,0,1,136.28,264m119.25,0A34.07,34.07,0,1,1,289.6,230,34.1,34.1,0,0,1,255.53,264m119.24,0A34.07,34.07,0,1,1,408.84,230,34.1,34.1,0,0,1,374.77,264" transform="translate(0 0)"/></g></svg>