<svg id="Layer_1" data-name="Layer 1" xmlns="http://www.w3.org/2000/svg" xmlns:xlink="http://www.w3.org/1999/xlink" viewBox="0 0 791.8 458.96"><defs><style>.cls-1{fill:none;}.cls-2{clip-path:url(#clip-path);}.cls-3{fill:#2ea8fe;}</style><clipPath id="clip-path" transform="translate(0 0)"><rect class="cls-1" width="791.8" height="458.96"/></clipPath></defs><title>educations</title><g class="cls-2"><path class="cls-3" d="M395.9,308.59l-236.2-72.7V357.31C159.7,413.45,265.49,459,396,459s236.29-45.51,236.29-101.65c0-.44-.15-.88-.15-1.31V235.89Z" transform="translate(0 0)"/><path class="cls-3" d="M0,152.31,84.38,182.5l7.19-15.4,31-2.64,4.42,4.6-26.6,6.31-3.87,11.47s-60.09,125.61-51.27,187c0,0,37.5,22.37,75,0l10-168v-14L186,179.32,182.06,189l-41.6,13.53,19.24,6.87,236.2,72.7,236.2-72.7,159.7-57.12L395.9,0Z" transform="translate(0 0)"/></g></svg>