<svg id="Layer_1" data-name="Layer 1" xmlns="http://www.w3.org/2000/svg" xmlns:xlink="http://www.w3.org/1999/xlink" viewBox="0 0 512 384"><defs><style>.cls-1{fill:none;}.cls-2{clip-path:url(#clip-path);}</style><clipPath id="clip-path" transform="translate(0 0)"><rect class="cls-1" width="512" height="384"/></clipPath></defs><title>email4</title><g class="cls-2"><path d="M254,192.08c.78-.8,1.6-1.6,2.49-2.37L474.14,1.09A47.73,47.73,0,0,0,464,0H48A47.66,47.66,0,0,0,34.78,1.87L251.53,189.72c.88.76,1.7,1.56,2.48,2.36" transform="translate(0 0)"/><path d="M499,15.25,274.18,210.13c-.42.36-1.2,1.18-1.89,1.89C268.47,216,262.7,222,254,222s-14.46-6-18.28-9.95c-.69-.71-1.47-1.53-1.89-1.88L11.22,17.2A47.75,47.75,0,0,0,0,48V336a48.05,48.05,0,0,0,48,48H464a48.05,48.05,0,0,0,48-48V48a47.8,47.8,0,0,0-13-32.75" transform="translate(0 0)"/></g></svg>