<svg id="Layer_1" data-name="Layer 1" xmlns="http://www.w3.org/2000/svg" xmlns:xlink="http://www.w3.org/1999/xlink" viewBox="0 0 447.89 447.93"><defs><style>.cls-1{fill:none;}.cls-2{clip-path:url(#clip-path);}</style><clipPath id="clip-path" transform="translate(0 0)"><rect class="cls-1" width="447.89" height="447.93"/></clipPath></defs><title>garage-sell</title><polygon points="416.02 57.17 416.02 38.69 400.02 29.46 384.02 38.69 384.02 57.17 400.02 66.41 416.02 57.17"/><polygon points="404.02 175.93 240.02 175.93 276.02 223.93 440.02 223.93 404.02 175.93"/><g class="cls-2"><path d="M380,114.65a41.32,41.32,0,0,1,28.8-19.55,47.67,47.67,0,0,0,33.6-24.49,48,48,0,1,0-87.45-6.37,40.6,40.6,0,0,1-2.68,34.4l-35.42,61.29h37ZM368,34.08a8,8,0,0,1,4-6.93l24-13.86a8,8,0,0,1,8,0l24,13.86a8,8,0,0,1,4,6.93V61.79a8,8,0,0,1-4,6.93L404,82.57a8,8,0,0,1-8,0L372,68.72a8,8,0,0,1-4-6.93Z" transform="translate(0 0)"/><path d="M265.62,236.73,232,191.93v256H400v-208H272a8,8,0,0,1-6.4-3.2" transform="translate(0 0)"/><path d="M26.7,70.08a8,8,0,0,1-6.4-4l-17.88-31A48,48,0,0,0,46.11,98a39.58,39.58,0,0,1,32,20.17l24,41.74h27.77L95.81,100.81a40.65,40.65,0,0,1-2.66-34.44A48.08,48.08,0,0,0,57.84,3.05L75.74,34.1A8,8,0,0,1,76,41.65L63.18,67.49a8,8,0,0,1-7.68,4.43Z" transform="translate(0 0)"/><polygon points="208.02 175.93 44.02 175.93 8.02 223.93 172.02 223.93 208.02 175.93"/><path d="M176,239.93H48v208H216v-256l-33.6,44.8a8,8,0,0,1-6.4,3.2" transform="translate(0 0)"/></g></svg>