<?xml version="1.0" encoding="utf-8"?>
<!-- Generator: Adobe Illustrator 23.0.5, SVG Export Plug-In . SVG Version: 6.00 Build 0)  -->
<svg version="1.1" id="Isolation_Mode" xmlns="http://www.w3.org/2000/svg" xmlns:xlink="http://www.w3.org/1999/xlink" x="0px"
	 y="0px" viewBox="0 0 98 99" style="enable-background:new 0 0 98 99;" xml:space="preserve">
<g>
	<path d="M93,99c-1.3,0-2.6-0.5-3.5-1.5L69,77c-2-2-2-5.1,0-7.1c2-2,5.1-2,7.1,0l20.5,20.5c2,2,2,5.1,0,7.1C95.6,98.5,94.3,99,93,99
		z"/>
</g>
<g>
	<path d="M44.5,89C20,89,0,69,0,44.5S20,0,44.5,0S89,20,89,44.5S69,89,44.5,89z M44.5,10C25.5,10,10,25.5,10,44.5S25.5,79,44.5,79
		S79,63.5,79,44.5S63.5,10,44.5,10z"/>
</g>
</svg>
