<svg id="Layer_1" data-name="Layer 1" xmlns="http://www.w3.org/2000/svg" viewBox="0 0 512 512"><title>icon-cover</title><path d="M149.33,149.33a42.67,42.67,0,1,1-42.66-42.66A42.66,42.66,0,0,1,149.33,149.33Z"/><path d="M202.67,373.33c0-83.15,59.81-152.51,138.66-167.55V17.53A17.52,17.52,0,0,0,323.81,0H17.53A17.53,17.53,0,0,0,0,17.53V409.14a17.53,17.53,0,0,0,17.53,17.53h193.8A169.66,169.66,0,0,1,202.67,373.33ZM101.12,259.84c-14.08-14.08-38.83-14.08-52.91,0l-5.54,5.53V42.67h256v158.7l-16.22-16.22a37.44,37.44,0,0,0-52.9,0L128,286.7Z"/><path d="M373.33,234.67c-76.45,0-138.66,62.21-138.66,138.66S296.88,512,373.33,512,512,449.79,512,373.33,449.79,234.67,373.33,234.67Zm66,153.32a5,5,0,0,1-5,5H393v41.37a5,5,0,0,1-5,5H358.68a5,5,0,0,1-5-5V393H312.31a5,5,0,0,1-5-5V358.68a5,5,0,0,1,5-5h41.37V312.31a5,5,0,0,1,5-5H388a5,5,0,0,1,5,5v41.37h41.37a5,5,0,0,1,5,5Z"/></svg>