<svg id="Layer_1" data-name="Layer 1" xmlns="http://www.w3.org/2000/svg" xmlns:xlink="http://www.w3.org/1999/xlink" viewBox="0 0 511.9 511.9"><defs><style>.cls-1{fill:none;}.cls-2{clip-path:url(#clip-path);}</style><clipPath id="clip-path" transform="translate(0 0)"><rect class="cls-1" width="511.9" height="511.9"/></clipPath></defs><title>icon-services</title><g class="cls-2"><path d="M302.67,411.32c.26-13.05.87-24,4.08-34.56,1.19-3.93.18-6.36-2.61-9.14q-60-59.81-119.91-119.79c-13.32-13.32-26.72-26.55-39.88-40-2.75-2.83-5.34-3.89-9.11-2.84a119.77,119.77,0,0,1-39,3.85c-22.67-1.28-42.47-9.71-59.69-24.59A106.91,106.91,0,0,1,6,140a99,99,0,0,1-6-33.66,88.46,88.46,0,0,1,4.1-29C7.8,66.32,20.54,63.24,28.88,71.5,41.79,84.28,54.53,97.24,67.46,110c9,8.84,19.61,12.49,31.93,8.5,21.57-7,27.86-33.28,11.88-49.58C98.67,56.06,85.8,43.47,73.14,30.68c-4.48-4.52-7.88-9.53-5.59-16.47s7.36-9.9,14.28-11.48a104.81,104.81,0,0,1,48.33.19c14.77,3.52,28,10.39,39.91,19.73A96.56,96.56,0,0,1,194.3,50.19,109.92,109.92,0,0,1,209,93.73c1.71,15.23-.48,29.78-4.47,44.24-.87,3.15,1.13,4.25,2.67,5.79q31.77,31.86,63.62,63.66,48.07,48.08,96.1,96.23c3.13,3.16,5.82,4.18,10.38,3.07,21.5-5.23,43.12-6.19,64.3,1.35A103.6,103.6,0,0,1,486,338.26c13.33,15.34,21.07,32.92,24.56,52.59a95.14,95.14,0,0,1-2.45,42.4c-3.43,12.35-16.72,15.66-25.81,6.62Q463,420.66,443.76,401.33c-16.63-16.79-44.91-10.8-51.14,12.9-3.06,11.66.72,21.63,9.05,30,12.57,12.65,25.14,25.3,37.85,37.81,4.44,4.37,6.45,9.49,4.81,15.37-1.73,6.25-6.34,9.94-12.75,11.35-24.46,5.36-48.08,3.64-70.76-7.8q-46.5-23.46-56.77-74.35c-1.15-5.65-1.9-11.5-1.38-15.29" transform="translate(0 0)"/><path d="M448.73,134.91c-6.61.4-10.39-4-14.4-8-5-5-5-5-10,0q-45.59,45.58-91.11,91.25c-3.28,3.3-5.11,3.83-8.59.2-11.19-11.67-22.66-23.06-34.26-34.3-3.21-3.11-3.51-4.88-.13-8.23,31-30.73,61.76-61.7,92.76-92.43,3.31-3.27,3.17-5,0-8.08-9.86-9.56-8.18-20.27,3.74-27.4q36.17-21.63,72.2-43.47c10.94-6.63,17-6,26.06,3.06,7.53,7.54,15.35,14.84,22.4,22.81,5.86,6.64,5.86,12.14,1.43,19.63-7.13,12-14.36,23.95-21.54,35.92q-11.68,19.45-23.35,38.91c-3.48,5.82-7.6,10.62-15.12,10.12" transform="translate(0 0)"/><path d="M241.46,347.91q-38.69-38.36-77-77.07c-3.55-3.6-5.19-3.07-8.44.19Q87.27,340.12,18.24,408.92C3.71,423.43-2.18,440.66.72,461.07c4.09,28.75,29.51,50.82,62.06,50.83,12-.5,25.93-4.58,36.82-15.42q71.07-70.64,141.84-141.59c2.78-2.76,2.83-4.2,0-7m-60,5.53a30.65,30.65,0,0,1-4.59,5.87q-43.21,43.33-86.52,86.58c-3.65,3.66-7.71,6.32-13.16,6-11.24-.06-18.19-12.46-12.43-22.3a26,26,0,0,1,4-5.07q43.41-43.48,86.89-86.91c6.8-6.79,12.52-8,19.63-4.52a14.66,14.66,0,0,1,6.18,20.34" transform="translate(0 0)"/></g></svg>