<svg id="Layer_1" data-name="Layer 1" xmlns="http://www.w3.org/2000/svg" xmlns:xlink="http://www.w3.org/1999/xlink" viewBox="0 0 437.55 437.54"><defs><style>.cls-1{fill:none;}.cls-2{clip-path:url(#clip-path);}</style><clipPath id="clip-path" transform="translate(0 0)"><rect class="cls-1" width="437.55" height="437.54"/></clipPath></defs><title>icon-painter</title><g class="cls-2"><path d="M418.05,429.48a45.52,45.52,0,0,0,11.44-63.2,47.42,47.42,0,0,0-11.44-11.52l-53-36.64a566.49,566.49,0,0,1-78.32-65.36l-20.88-20.88a40,40,0,0,1,0-56.56l5.68-5.6a24.09,24.09,0,0,0,0-34L232,96.12,96.21,232l39.6,39.52a23.93,23.93,0,0,0,33.92.08v-.08l5.68-5.6a40,40,0,0,1,56.56,0l20.8,20.88a572.77,572.77,0,0,1,65.44,78.32l36.64,53a45.5,45.5,0,0,0,63.2,11.44m-39-16.56a24,24,0,1,1,17,7,24,24,0,0,1-17-7" transform="translate(0 0)"/><polygon points="0 135.76 84.86 220.62 220.62 84.85 135.77 0 56.58 79.19 107.48 130.1 96.17 141.42 45.26 90.5 33.94 101.82 100.86 168.74 89.54 180.05 22.63 113.14 0 135.76"/></g></svg>