<svg id="Layer_1" data-name="Layer 1" xmlns="http://www.w3.org/2000/svg" xmlns:xlink="http://www.w3.org/1999/xlink" viewBox="0 0 354.2 233.4"><defs><style>.cls-1{fill:none;}.cls-2{clip-path:url(#clip-path);}</style><clipPath id="clip-path" transform="translate(0 0)"><rect class="cls-1" width="354.2" height="233.4"/></clipPath></defs><title>icon-architet</title><g class="cls-2"><path d="M12.26,203.05l-.08.08A39.8,39.8,0,0,0,0,231.9v1.5H354.2v-1.5A41.17,41.17,0,0,0,342,203.1l0,0,0,0A39.83,39.83,0,0,0,313.1,190.8H41.1c-11.45,0-21.67,4.32-28.77,12.17Z" transform="translate(0 0)"/><path d="M227,31.55l-6.53,103.83c-.56,11-9.25,19.52-19.79,19.52H153.5c-10.54,0-19.23-8.57-19.79-19.52L127.18,31.55C71.23,52.11,31.1,106.05,31.1,168.7v17.63a48.94,48.94,0,0,1,10-1h272a45.75,45.75,0,0,1,10,1.12V168.7C323.1,106.05,283,52.11,227,31.55" transform="translate(0 0)"/><path d="M222.59,14.36v-.11a12.13,12.13,0,0,0-3.23-9.4A14.93,14.93,0,0,0,208.3,0H145.9a14.64,14.64,0,0,0-10.55,4.62,13,13,0,0,0-3.75,9.69L139.2,135c.39,7.93,6.81,14.36,14.3,14.36h47.2c7.49,0,13.9-6.41,14.3-14.29Z" transform="translate(0 0)"/></g></svg>