<?xml version="1.0" encoding="utf-8"?>
<!-- Generator: Adobe Illustrator 23.0.5, SVG Export Plug-In . SVG Version: 6.00 Build 0)  -->
<svg version="1.1" id="Capa_1" xmlns="http://www.w3.org/2000/svg" xmlns:xlink="http://www.w3.org/1999/xlink" x="0px" y="0px"
	 viewBox="0 0 361.1 512" style="enable-background:new 0 0 361.1 512;" xml:space="preserve">
<g>
	<path d="M180.6,314.2c-9.8,0-17.8,8-17.8,17.8v55.8c0,9.8,8,17.8,17.8,17.8s17.8-8,17.8-17.8V332
		C198.4,322.2,190.4,314.2,180.6,314.2z"/>
	<path d="M301.7,197.7v-76.5C301.7,54.4,247.4,0,180.6,0S59.4,54.4,59.4,121.2v76.5C22.9,230.7,0,278.5,0,331.4
		C0,431,81,512,180.6,512c99.6,0,180.6-81,180.6-180.6C361.1,278.5,338.2,230.7,301.7,197.7z M95,121.2c0-47.2,38.4-85.5,85.5-85.5
		s85.5,38.4,85.5,85.5v51.3c-25.5-13.8-54.6-21.6-85.5-21.6c-30.9,0-60.1,7.8-85.5,21.6V121.2z M180.6,476.4
		c-79.9,0-144.9-65-144.9-144.9s65-144.9,144.9-144.9c79.9,0,144.9,65,144.9,144.9S260.5,476.4,180.6,476.4z"/>
</g>
</svg>
