<?xml version="1.0" encoding="utf-8"?>
<!-- Generator: Adobe Illustrator 23.0.5, SVG Export Plug-In . SVG Version: 6.00 Build 0)  -->
<svg version="1.1" id="Capa_1" xmlns="http://www.w3.org/2000/svg" xmlns:xlink="http://www.w3.org/1999/xlink" x="0px" y="0px"
	 viewBox="0 0 298.9 299" style="enable-background:new 0 0 298.9 299;" xml:space="preserve">
<path d="M284.9,25.8L273.2,14C264.2,5,252.1,0,239.3,0s-24.8,5-33.9,14L27.2,192.2c-1.6,1.6-2.7,3.6-3.3,5.7L0.5,282.5
	c-1.2,4.5,0,9.3,3.3,12.6c2.5,2.5,5.7,3.8,9.2,3.8c1.2,0,2.3-0.2,3.5-0.5l84.6-23.4c2.2-0.6,4.1-1.8,5.7-3.3L284.9,93.6
	C303.6,74.9,303.6,44.5,284.9,25.8z M73.5,255.7l-41.9,11.6l11.6-41.9L73.5,255.7z M239.7,102L98.1,243.6l-42.8-42.8L196.9,59.2
	L239.7,102z M266.6,75.2l-8.5,8.5l-42.8-42.8l8.5-8.5c4.1-4.1,9.7-6.4,15.5-6.4s11.4,2.3,15.5,6.4l11.7,11.7
	C275.1,52.7,275.1,66.6,266.6,75.2z"/>
</svg>
