<svg id="Layer_1" data-name="Layer 1" xmlns="http://www.w3.org/2000/svg" xmlns:xlink="http://www.w3.org/1999/xlink" viewBox="0 0 320 512"><defs><style>.cls-1{fill:none;}.cls-2{clip-path:url(#clip-path);}</style><clipPath id="clip-path"><rect class="cls-1" width="320" height="512"/></clipPath></defs><title>icon-pin2</title><g class="cls-2"><path d="M160,512C71.77,512,0,440.23,0,352V128a21.34,21.34,0,0,1,42.67,0V352a117.33,117.33,0,0,0,234.66,0V117.33a74.67,74.67,0,0,0-149.33,0V330.67a32,32,0,0,0,64,0V128a21.34,21.34,0,0,1,42.67,0V330.67a74.67,74.67,0,0,1-149.34,0V117.33a117.34,117.34,0,0,1,234.67,0V352c0,88.23-71.77,160-160,160"/></g></svg>