<svg id="Capa_1" data-name="Capa 1" xmlns="http://www.w3.org/2000/svg" viewBox="0 0 402.29 402.29"><title>icon-add1</title><path d="M347.43,0H54.86A54.92,54.92,0,0,0,0,54.86V347.43a54.92,54.92,0,0,0,54.86,54.86H347.43a54.92,54.92,0,0,0,54.86-54.86V54.86A54.92,54.92,0,0,0,347.43,0ZM292.57,201.15a18.28,18.28,0,0,1-18.28,18.28H219.43v54.86a18.29,18.29,0,0,1-36.57,0V219.43H128a18.29,18.29,0,0,1-18.29-18.28h0A18.29,18.29,0,0,1,128,182.86h54.86V128a18.29,18.29,0,0,1,36.57,0v54.86h54.86a18.28,18.28,0,0,1,18.28,18.28Z"/></svg>