<svg id="Layer_1" data-name="Layer 1" xmlns="http://www.w3.org/2000/svg" viewBox="0 0 452.19 452.19"><title>icon-phone2</title><path d="M447.81,390.07,437.2,400.68l-84.86-84.87,10.6-10.6a15,15,0,0,1,21.22,0l63.65,63.65A15,15,0,0,1,447.81,390.07Z"/><path d="M146.9,89.05,136.29,99.66,51.48,14.85,62,4.39a15,15,0,0,1,21.24,0L146.9,67.84A15,15,0,0,1,146.9,89.05Z"/><path d="M415.58,421.5a131.65,131.65,0,0,1-178-8.28L38.89,214.42a131.89,131.89,0,0,1-8.28-178L115.18,121A64,64,0,0,0,118,208.63l125.4,125.5h0A64,64,0,0,0,331,336.93Z"/></svg>