<svg id="Layer_1" data-name="Layer 1" xmlns="http://www.w3.org/2000/svg" xmlns:xlink="http://www.w3.org/1999/xlink" viewBox="0 0 512 452.92"><defs><style>.cls-1{fill:none;}.cls-2{clip-path:url(#clip-path);}</style><clipPath id="clip-path" transform="translate(0 0)"><rect class="cls-1" width="512" height="452.92"/></clipPath></defs><title>icon-fences</title><rect x="333.89" y="111.23" width="52.8" height="110.13"/><rect x="125.31" y="111.23" width="52.8" height="110.13"/><rect x="125.31" y="278.92" width="52.8" height="110.13"/><rect x="333.89" y="278.92" width="52.8" height="110.13"/><g class="cls-2"><path d="M512,51.81a18.65,18.65,0,0,0-4.56-12.22L478.66,6.42a18.64,18.64,0,0,0-28.15,0L421.73,39.6a18.61,18.61,0,0,0-4.56,12.21V434.29a18.63,18.63,0,0,0,18.63,18.63h57.56A18.63,18.63,0,0,0,512,434.29ZM449.35,166.3c-.37-8.23,7.26-15.24,15.24-15.24,8.53,0,14.86,7,15.23,15.24s-7.27,15.24-15.23,15.24c-8.55,0-14.88-7-15.24-15.24m0,167.69c-.37-8.23,7.26-15.24,15.24-15.24,8.53,0,14.86,7,15.23,15.24s-7.27,15.24-15.23,15.24c-8.55,0-14.88-7-15.24-15.24" transform="translate(0 0)"/><path d="M298.86,39.59,270.08,6.42a18.64,18.64,0,0,0-28.15,0L213.14,39.6a18.6,18.6,0,0,0-4.55,12.21V434.29a18.63,18.63,0,0,0,18.63,18.63h57.56a18.63,18.63,0,0,0,18.63-18.63V51.81a18.64,18.64,0,0,0-4.55-12.22M240.77,166.3c-.37-8.23,7.27-15.24,15.23-15.24,8.55,0,14.87,7,15.24,15.24S264,181.54,256,181.54c-8.54,0-14.86-7-15.23-15.24m0,167.69c-.37-8.23,7.27-15.24,15.23-15.24,8.55,0,14.87,7,15.24,15.24S264,349.23,256,349.23c-8.54,0-14.86-7-15.23-15.24" transform="translate(0 0)"/><path d="M90.27,39.59,61.49,6.42a18.64,18.64,0,0,0-28.15,0L4.56,39.6A18.61,18.61,0,0,0,0,51.81V434.29a18.63,18.63,0,0,0,18.63,18.63H76.2a18.63,18.63,0,0,0,18.63-18.63V51.81a18.65,18.65,0,0,0-4.56-12.22M35.34,166.3c-.37-8.23,7.27-15.24,15.24-15.24,8.54,0,14.87,7,15.24,15.24s-7.27,15.24-15.24,15.24c-8.55,0-14.87-7-15.24-15.24m0,167.69c-.37-8.23,7.27-15.24,15.24-15.24,8.54,0,14.87,7,15.24,15.24s-7.27,15.24-15.24,15.24c-8.55,0-14.87-7-15.24-15.24" transform="translate(0 0)"/></g></svg>