<?xml version="1.0" encoding="utf-8"?>
<!-- Generator: Adobe Illustrator 23.0.5, SVG Export Plug-In . SVG Version: 6.00 Build 0)  -->
<svg version="1.1" id="Capa_1" xmlns="http://www.w3.org/2000/svg" xmlns:xlink="http://www.w3.org/1999/xlink" x="0px" y="0px"
	 viewBox="0 0 308.1 512" style="enable-background:new 0 0 308.1 512;" xml:space="preserve">
<path d="M246.1,0H62C27.8,0,0,27.8,0,62v388c0,34.2,27.8,62,62,62h184.1c34.2,0,62-27.8,62-62V62C308.1,27.8,280.3,0,246.1,0z
	 M62,37.2h184.1c13.9,0,24.8,10.9,24.8,24.8v17.4H37.2V62C37.2,48.1,48.1,37.2,62,37.2z M270.9,116.5v260.3H37.2V116.5H270.9z
	 M246.1,474.8H62c-13.9,0-24.8-10.9-24.8-24.8v-36h233.7v36C270.9,463.9,260,474.8,246.1,474.8z"/>
</svg>
