<svg id="Layer_1" data-name="Layer 1" xmlns="http://www.w3.org/2000/svg" xmlns:xlink="http://www.w3.org/1999/xlink" viewBox="0 0 512 512"><style>path{fill:#4dc901;}</style><defs><style>.cls-1{fill:none;}.cls-2{clip-path:url(#clip-path);}</style><clipPath id="clip-path"><rect class="cls-1" width="512" height="512"/></clipPath></defs><title>icon-earth</title><g class="cls-2"><path d="M256,0C114.84,0,0,114.84,0,256S114.84,512,256,512,512,397.16,512,256,397.16,0,256,0m0,469.33A212.53,212.53,0,0,1,106.67,408.1V373.33c0-10.14,4.54-16.67,9.79-24.24C121.87,341.31,128,332.49,128,320c0-20.34-18.37-22.41-28.24-23.51C92.7,295.7,86,295,82.21,291.13c-2.9-2.9-5.79-8.16-8.86-13.72-6.08-11.07-14.32-25.7-30-34.66C50.24,131.3,142.84,42.67,256,42.67c5.85,0,11.61.41,17.35.88a21,21,0,0,0-3.56,2.24,10.67,10.67,0,0,0,.45,15.51A29,29,0,0,1,275,66.43c-.24.51-2.2,3.85-13.12,9.39-18,9.14-38.83,27.84-41.92,47.3a26,26,0,0,0,7.21,23.09,10.64,10.64,0,0,0,7.54,3.12c14.81,0,26.26-5.47,37.33-10.77,11.36-5.42,22.1-10.56,37.33-10.56,41.87,0,74.67,9.38,74.67,21.33,0,4.39-1.37,5.73-1.89,6.23-5.23,5.16-23.08,4.83-38.77,4.59-4.15-.08-8.4-.15-12.67-.15-14.48,0-19-2.12-24.17-4.57-6.05-2.86-12.91-6.1-29.17-6.1-17.58,0-50.26,3.18-71.54,24.46-17.41,17.4-15.56,38.21-14.35,52,.28,3.17.56,6.17.56,8.91,0,21,21.47,32,42.67,32,32.6,0,60.79,6.08,64,10.66,0,11.94,3.55,20.1,6.4,26.64,2.38,5.47,4.26,9.78,4.26,16,0,4.83-.79,5.86-2.92,8.61-4.08,5.3-7.74,11.06-7.74,23.39,0,22.45,21.61,47.07,24.07,49.81a10.69,10.69,0,0,0,7.93,3.52,10.33,10.33,0,0,0,2.64-.33c6.28-1.62,61.36-16.77,61.36-53,0-11.35,3.53-14.42,8.88-19.06S416,322.13,416,309.33c0-8.55,15.18-30.62,29.24-46.17a10.67,10.67,0,0,0-1.36-15.59c-8.3-6.43-31.19-27.35-38.86-47.65a61,61,0,0,1,14.11,10.29,17.75,17.75,0,0,0,13.72,5.06c8.64-.49,18.91-7.32,28.63-15.83A212,212,0,0,1,469.33,256c0,117.64-95.7,213.33-213.33,213.33"/></g></svg>