<?xml version="1.0" encoding="utf-8"?>
<!-- Generator: Adobe Illustrator 23.0.5, SVG Export Plug-In . SVG Version: 6.00 Build 0)  -->
<svg version="1.1" id="Layer_1" xmlns="http://www.w3.org/2000/svg" xmlns:xlink="http://www.w3.org/1999/xlink" x="0px" y="0px"
	 viewBox="0 0 914 889.7" style="enable-background:new 0 0 914 889.7;" xml:space="preserve">
<style type="text/css">
	.st0{fill:none;}
</style>
<path d="M704,469.7c-116,0-210,94-210,210s94,210,210,210s210-94,210-210S820,469.7,704,469.7z M811.4,694.7
	c-3.9,3.9-9.2,6.3-15.1,6.3h-64v64c0,11.8-9.5,21.3-21.3,21.3c-5.9,0-11.2-2.4-15.1-6.3c-3.9-3.9-6.3-9.2-6.3-15.1v-64h-64
	c-11.8,0-21.3-9.5-21.3-21.3c0-5.9,2.4-11.2,6.3-15.1c3.9-3.9,9.2-6.3,15.1-6.3h64v-64c0-11.8,9.6-21.3,21.3-21.3
	c5.9,0,11.2,2.4,15.1,6.3s6.3,9.2,6.3,15.1v64h64c11.8,0,21.3,9.5,21.3,21.3C817.7,685.5,815.3,690.9,811.4,694.7z"/>
<g>
	<circle class="st0" cx="172.7" cy="335" r="53.9"/>
	<path class="st0" d="M299.1,585L222,485.1L59,696.2h395.6c-0.4-5.5-0.6-11-0.6-16.5c0-55,17.8-105.9,47.9-147.2L419,414.7
		L299.1,585z"/>
	<path d="M59,696.2l163-211.1l77.1,99.9L419,414.7l82.9,117.8c39.7-54.4,100.8-92.2,171-100.9V205c0-27.8-22.5-50.3-50.3-50.3H50.3
		C22.5,154.7,0,177.2,0,205v572.4c0,27.8,22.5,50.3,50.3,50.3h452.3c-27.4-37.3-44.8-82.5-48-131.5H59z M172.7,281
		c29.8,0,53.9,24.2,53.9,53.9c0,29.8-24.2,53.9-53.9,53.9s-53.9-24.2-53.9-53.9C118.8,305.2,142.9,281,172.7,281z"/>
	<path d="M827.7,50.3c0-27.8-22.5-50.3-50.3-50.3H220.5c-27.8,0-50.3,22.5-50.3,50.3v0c0,27.8,22.5,50.3,50.3,50.3h456.4
		c27.8,0,50.3,22.5,50.3,50.3v279.9c36.3,3.3,70.4,14.4,100.6,31.6V50.3z"/>
</g>
</svg>
