<?xml version="1.0" encoding="utf-8"?>
<!-- Generator: Adobe Illustrator 23.0.5, SVG Export Plug-In . SVG Version: 6.00 Build 0)  -->
<svg version="1.1" id="Capa_1" xmlns="http://www.w3.org/2000/svg" xmlns:xlink="http://www.w3.org/1999/xlink" x="0px" y="0px"
	 viewBox="0 0 356.3 327.9" style="enable-background:new 0 0 356.3 327.9;" xml:space="preserve">
<g>
	<path d="M62.7,142.8h75c5.9,0,10.8-4.8,10.8-10.8c0-5.9-4.8-10.8-10.8-10.8h-75c-5.9,0-10.8,4.8-10.8,10.8
		C52,137.9,56.8,142.8,62.7,142.8z"/>
	<path d="M62.7,177.4h150.1c5.9,0,10.8-4.8,10.8-10.8c0-5.9-4.8-10.8-10.8-10.8H62.7c-5.9,0-10.8,4.8-10.8,10.8
		C52,172.6,56.8,177.4,62.7,177.4z"/>
	<path d="M223.6,201.3c0-5.9-4.8-10.8-10.8-10.8H62.7c-5.9,0-10.8,4.8-10.8,10.8c0,5.9,4.8,10.8,10.8,10.8h150.1
		C218.7,212,223.6,207.2,223.6,201.3z"/>
	<path d="M317.1,0.4L120.1,0h0h0h0C98.4,0,80.8,17.6,80.8,39.2v24.6l-41.6,0.1C17.6,63.9,0,81.5,0,103.1v122
		c0,21.6,17.6,39.2,39.2,39.2h30v52.7c0,4.4,2.8,8.5,6.9,10.1c1.2,0.5,2.6,0.7,3.9,0.7c3,0,5.9-1.3,8-3.5l54.5-60l93.8-0.4
		c17.8,0,33.1-11.9,37.7-28.6l23.1,25.4c2,2.2,4.9,3.5,8,3.5c1.3,0,2.6-0.2,3.9-0.7c4.1-1.6,6.9-5.6,6.9-10.1v-52.7h1.2
		c21.6,0,39.2-17.6,39.2-39.2v-122C356.3,18,338.7,0.4,317.1,0.4z M236.3,63.5l-133.9,0.3V39.2c0-9.8,7.9-17.7,17.7-17.7l197.1,0.4
		c9.8,0,17.7,7.9,17.7,17.7v120l0,2c0,9.8-7.9,17.7-17.7,17.7h-11.9c-5.9,0-10.8,4.8-10.8,10.8v35.6L275.5,205V102.7
		C275.5,81.1,257.9,63.5,236.3,63.5z M80,242.8H39.2c-9.8,0-17.7-7.9-17.7-17.7v-122c0-9.8,7.9-17.7,17.7-17.7l52.4-0.1L236.3,85
		C246,85,254,93,254,102.7v106.4v15.6c0,9.7-7.9,17.7-17.7,17.7l-98.6,0.4c-3,0-5.9,1.3-7.9,3.5l-39,42.9v-35.6
		C90.8,247.7,86,242.8,80,242.8z"/>
</g>
</svg>
