<?xml version="1.0" encoding="utf-8"?>
<!-- Generator: Adobe Illustrator 23.0.5, SVG Export Plug-In . SVG Version: 6.00 Build 0)  -->
<svg version="1.1" id="Capa_1" xmlns="http://www.w3.org/2000/svg" xmlns:xlink="http://www.w3.org/1999/xlink" x="0px" y="0px"
	 viewBox="0 0 350.3 321.9" style="enable-background:new 0 0 350.3 321.9;" xml:space="preserve">
<g>
	<path d="M59.7,136.8h75c4.3,0,7.8-3.5,7.8-7.8s-3.5-7.8-7.8-7.8h-75c-4.3,0-7.8,3.5-7.8,7.8S55.4,136.8,59.7,136.8z"/>
	<path d="M59.7,171.4h150.1c4.3,0,7.8-3.5,7.8-7.8s-3.5-7.8-7.8-7.8H59.7c-4.3,0-7.8,3.5-7.8,7.8S55.4,171.4,59.7,171.4z"/>
	<path d="M217.6,198.3c0-4.3-3.5-7.8-7.8-7.8H59.7c-4.3,0-7.8,3.5-7.8,7.8s3.5,7.8,7.8,7.8h150.1C214.1,206,217.6,202.5,217.6,198.3
		z"/>
	<path d="M314.1,0.4L117,0h0h0c-20,0-36.2,16.3-36.2,36.2v27.6l-44.6,0.1C16.3,63.9,0,80.2,0,100.1v122c0,20,16.3,36.2,36.2,36.2h33
		v55.7c0,3.2,2,6.1,5,7.3c0.9,0.3,1.8,0.5,2.8,0.5c2.2,0,4.3-0.9,5.8-2.5l55.4-61l95.1-0.4c18.5,0,33.9-14,36-32l27.1,29.8
		c1.5,1.6,3.6,2.5,5.8,2.5c1,0,1.9-0.2,2.8-0.5c3-1.1,5-4.1,5-7.3v-55.7h4.2c20,0,36.2-16.2,36.2-36.2v-122
		C350.3,16.7,334.1,0.4,314.1,0.4z M88.6,77.3L88.6,77.3L88.6,77.3L88.6,77.3z M233.3,63.5L96.4,63.8V36.2
		c0-11.4,9.3-20.7,20.7-20.7l197.1,0.4c11.4,0,20.7,9.3,20.7,20.7v120l0,2c0,11.4-9.3,20.7-20.7,20.7h-11.9c-4.3,0-7.8,3.5-7.8,7.8
		v43.4l-24.9-27.3V99.7C269.5,79.7,253.3,63.5,233.3,63.5z M77,242.8H36.2c-11.4,0-20.7-9.3-20.7-20.7v-122
		c0-11.4,9.3-20.7,20.7-20.7l52.3-0.1L233.3,79c11.4,0,20.7,9.3,20.7,20.7v106.4v15.6c0,11.4-9.3,20.7-20.7,20.7l-98.5,0.4
		c-2.2,0-4.3,0.9-5.7,2.5L84.8,294v-43.4C84.8,246.3,81.3,242.8,77,242.8z"/>
</g>
</svg>
