<?xml version="1.0" encoding="utf-8"?>
<!-- Generator: Adobe Illustrator 23.0.5, SVG Export Plug-In . SVG Version: 6.00 Build 0)  -->
<svg version="1.1" id="Capa_1" xmlns="http://www.w3.org/2000/svg" xmlns:xlink="http://www.w3.org/1999/xlink" x="0px" y="0px"
	 viewBox="0 0 201.1 201.1" style="enable-background:new 0 0 201.1 201.1;" xml:space="preserve">
<path d="M192,91.4h-18.9c-4.2-33.1-30.3-59.2-63.4-63.4V9.1c0-5-4.1-9.1-9.1-9.1s-9.1,4.1-9.1,9.1v18.9
	c-33.1,4.2-59.2,30.3-63.4,63.4H9.1c-5.1,0-9.1,4.1-9.1,9.1c0,5.1,4.1,9.1,9.1,9.1h18.9c4.2,33.1,30.3,59.2,63.4,63.4V192
	c0,5,4.1,9.1,9.1,9.1s9.1-4.1,9.1-9.1v-18.9c33.1-4.2,59.2-30.3,63.4-63.4H192c5,0,9.1-4.1,9.1-9.1C201.1,95.5,197,91.4,192,91.4z
	 M100.6,155.4c-30.3,0-54.9-24.6-54.9-54.9c0-30.3,24.6-54.9,54.9-54.9c30.3,0,54.8,24.6,54.9,54.9
	C155.4,130.9,130.9,155.4,100.6,155.4z"/>
<path d="M130.2,100.6c0,16.3-13.3,29.6-29.6,29.6S71,116.9,71,100.6C71,84.2,84.2,71,100.6,71C116.9,71,130.2,84.2,130.2,100.6z"/>
</svg>
