<svg id="Layer_1" data-name="Layer 1" xmlns="http://www.w3.org/2000/svg" xmlns:xlink="http://www.w3.org/1999/xlink" viewBox="0 0 512 512"><defs><style>.cls-1{fill:none;}.cls-2{clip-path:url(#clip-path);}.cls-3{fill:#fbbd00;}.cls-4{fill:#0f9d58;}.cls-5{fill:#31aa52;}.cls-6{fill:#3c79e6;}.cls-7{fill:#cf2d48;}.cls-8{fill:#eb4132;}</style><clipPath id="clip-path"><rect class="cls-1" width="512" height="512"/></clipPath></defs><title>icon-google</title><g class="cls-2"><path class="cls-3" d="M120,256a135.19,135.19,0,0,1,19.13-69.48V100.21H52.82a256.16,256.16,0,0,0,0,311.58h86.31V325.48A135.19,135.19,0,0,1,120,256"/><path class="cls-4" d="M256,392l-60,60,60,60a254.11,254.11,0,0,0,155.79-52.82V373H325.57A136,136,0,0,1,256,392"/><path class="cls-5" d="M139.13,325.48,52.82,411.79A260.63,260.63,0,0,0,75,437a254.33,254.33,0,0,0,181,75V392a136.06,136.06,0,0,1-116.87-66.52"/><path class="cls-6" d="M512,256a258.51,258.51,0,0,0-4.19-46.38l-2.25-12.3H256v120H377.45A135.3,135.3,0,0,1,325.57,373l86.21,86.22A259.55,259.55,0,0,0,437,437a254.33,254.33,0,0,0,75-181"/><path class="cls-7" d="M352.17,159.83l10.6,10.61,84.86-84.85L437,75A254.33,254.33,0,0,0,256,0L196,60l60,60a135.14,135.14,0,0,1,96.17,39.83"/><path class="cls-8" d="M256,120V0A254.33,254.33,0,0,0,75,75a259.55,259.55,0,0,0-22.16,25.24l86.31,86.3A136.06,136.06,0,0,1,256,120"/></g></svg>