<?xml version="1.0" encoding="utf-8"?>
<!-- Generator: Adobe Illustrator 23.0.5, SVG Export Plug-In . SVG Version: 6.00 Build 0)  -->
<svg version="1.1" id="Layer_1" xmlns="http://www.w3.org/2000/svg" xmlns:xlink="http://www.w3.org/1999/xlink" x="0px" y="0px"
	 viewBox="0 0 452.2 452.2" style="enable-background:new 0 0 452.2 452.2;" xml:space="preserve">
<path d="M447.8,390.1l-10.6,10.6l-84.9-84.9l10.6-10.6c5.9-5.9,15.4-5.9,21.2,0l63.7,63.6C453.7,374.7,453.7,384.2,447.8,390.1z"/>
<path d="M146.9,89l-10.6,10.6L51.5,14.8L62,4.4c5.8-5.9,15.4-5.9,21.2,0l63.6,63.4C152.8,73.7,152.8,83.2,146.9,89z"/>
<path d="M415.6,421.5c-52,43.3-128.7,41-178-8.3L38.9,214.4c-49-49-51.6-125.8-8.3-178l84.6,84.6c-22.2,25.2-21.3,63.6,2.8,87.6
	l125.4,125.5v0c24.1,24.1,62.4,25,87.7,2.8L415.6,421.5z"/>
</svg>
