<?xml version="1.0" encoding="utf-8"?>
<!-- Generator: Adobe Illustrator 23.0.5, SVG Export Plug-In . SVG Version: 6.00 Build 0)  -->
<svg version="1.1" id="Capa_1" xmlns="http://www.w3.org/2000/svg" xmlns:xlink="http://www.w3.org/1999/xlink" x="0px" y="0px"
	 viewBox="0 0 512 326.3" style="enable-background:new 0 0 512 326.3;" xml:space="preserve">
<g>
	<g>
		<path d="M508.7,153.2C504.2,146.9,395.2,0,256,0S7.8,146.9,3.2,153.2c-4.3,5.9-4.3,14,0,19.9c4.6,6.3,113.6,153.2,252.7,153.2
			s248.2-146.9,252.7-153.2C513.1,167.2,513.1,159.1,508.7,153.2z M256,292.6c-102.5,0-191.3-97.5-217.6-129.4
			C64.6,131.2,153.2,33.8,256,33.8c102.5,0,191.3,97.5,217.6,129.4C447.4,195.1,358.7,292.6,256,292.6z"/>
	</g>
</g>
<g>
	<g>
		<path d="M256,61.9c-55.8,0-101.3,45.4-101.3,101.3S200.2,264.4,256,264.4S357.3,219,357.3,163.2S311.8,61.9,256,61.9z M256,230.7
			c-37.2,0-67.5-30.3-67.5-67.5s30.3-67.5,67.5-67.5s67.5,30.3,67.5,67.5S293.2,230.7,256,230.7z"/>
	</g>
</g>
</svg>
