<svg id="Layer_1" data-name="Layer 1" xmlns="http://www.w3.org/2000/svg" xmlns:xlink="http://www.w3.org/1999/xlink" viewBox="0 0 505.33 512"><defs><style>.cls-1{fill:none;}.cls-2{clip-path:url(#clip-path);}</style><clipPath id="clip-path" transform="translate(0)"><rect class="cls-1" width="505.33" height="512"/></clipPath></defs><title>icon-services1</title><g class="cls-2"><path d="M252.67,43.94A110,110,0,0,0,142.75,153.86v53.4a109.9,109.9,0,0,0,207,51.47,118.61,118.61,0,0,1-43.18,8.15H274.64a16.48,16.48,0,1,1,0-33h31.94a86,86,0,0,0,55.84-20.66q.16-3,.16-6v-53.4A110,110,0,0,0,252.67,43.94" transform="translate(0)"/><path d="M407.48,136.52h-1.94C396.9,59.82,331.64,0,252.67,0S108.43,59.82,99.79,136.52H97.86a43.61,43.61,0,1,0,0,87.21h17.43a16.47,16.47,0,0,0,16.48-16.47v-53.4a120.9,120.9,0,1,1,241.8,0v47.89a85.53,85.53,0,0,1-11.15,11.51,109.06,109.06,0,0,1-12.65,45.46,118.87,118.87,0,0,0,48.4-35h9.31a43.61,43.61,0,0,0,0-87.21" transform="translate(0)"/><path d="M504.53,490.47l-49.4-153.2a16.46,16.46,0,0,0-7.73-9.37l-75.68-41.75a143,143,0,0,1-102.58,63V512H488.85a16.48,16.48,0,0,0,15.68-21.53" transform="translate(0)"/><path d="M133.61,286.15,57.93,327.9a16.47,16.47,0,0,0-7.73,9.37L.81,490.47A16.48,16.48,0,0,0,16.49,512h219.7V349.18a143,143,0,0,1-102.58-63" transform="translate(0)"/></g></svg>