<svg id="Layer_1" data-name="Layer 1" xmlns="http://www.w3.org/2000/svg" xmlns:xlink="http://www.w3.org/1999/xlink" viewBox="0 0 522 500.67"><defs><style>.cls-1{fill:none;}.cls-2{clip-path:url(#clip-path);}</style><clipPath id="clip-path" transform="translate(0 0)"><rect class="cls-1" width="522" height="500.67"/></clipPath></defs><title>icon-sort1</title><g class="cls-2"><path d="M495.67,394.67H442.48a81,81,0,0,0-27-37.17,78.74,78.74,0,0,0-95.6,0,81.07,81.07,0,0,0-27,37.17H26.33a26.33,26.33,0,1,0,0,52.66H292.85a81,81,0,0,0,27,37.17,78.74,78.74,0,0,0,95.6,0,81.12,81.12,0,0,0,27-37.17h53.19a26.33,26.33,0,1,0,0-52.66M394.67,421a27,27,0,1,1-27-27,27,27,0,0,1,27,27" transform="translate(0 0)"/><path d="M26.33,106H292.85a81.12,81.12,0,0,0,27,37.17,78.76,78.76,0,0,0,95.59,0,81.12,81.12,0,0,0,27-37.17h53.19a26.34,26.34,0,0,0,0-52.67H442.48a81.17,81.17,0,0,0-27-37.17,78.76,78.76,0,0,0-95.59,0,81.17,81.17,0,0,0-27,37.17H26.33a26.34,26.34,0,0,0,0,52.67M340.67,79.67a27,27,0,1,1,27,27,27,27,0,0,1-27-27" transform="translate(0 0)"/><path d="M495.67,224H229.15a81.12,81.12,0,0,0-27-37.17,78.76,78.76,0,0,0-95.59,0,81.12,81.12,0,0,0-27,37.17H26.33a26.34,26.34,0,0,0,0,52.67H79.52a81.09,81.09,0,0,0,27,37.16,78.72,78.72,0,0,0,95.59,0,81,81,0,0,0,27-37.16H495.67a26.34,26.34,0,0,0,0-52.67M181.33,250.33a27,27,0,1,1-27-27,27,27,0,0,1,27,27" transform="translate(0 0)"/></g></svg>