<?xml version="1.0" encoding="utf-8"?>
<!-- Generator: Adobe Illustrator 23.0.5, SVG Export Plug-In . SVG Version: 6.00 Build 0)  -->
<svg version="1.1" id="Capa_1" xmlns="http://www.w3.org/2000/svg" xmlns:xlink="http://www.w3.org/1999/xlink" x="0px" y="0px"
	 viewBox="0 0 135.5 98.6" style="enable-background:new 0 0 135.5 98.6;" xml:space="preserve">
<style type="text/css">
	.st0{fill:#FFFFFF;}
</style>
<g>
	
		<image style="overflow:visible;opacity:0.4;" width="135" height="100" xlink:href="8B8BF25D.png"  transform="matrix(1 0 0 1 6.2553 4.2676)">
	</image>
	<g>
		<path class="st0" d="M50.3,9.6c1.6-1.6,4.2-1.6,5.9,0c1.6,1.6,1.6,4.2,0,5.8L26.4,45.2h98.2c2.3,0,4.2,1.8,4.2,4.1
			s-1.9,4.2-4.2,4.2H26.4l29.8,29.7c1.6,1.6,1.6,4.3,0,5.9s-4.2,1.6-5.9,0L13.5,52.2c-1.6-1.6-1.6-4.2,0-5.8L50.3,9.6z"/>
	</g>
</g>
</svg>
