<?xml version="1.0" encoding="utf-8"?>
<!-- Generator: Adobe Illustrator 23.0.5, SVG Export Plug-In . SVG Version: 6.00 Build 0)  -->
<svg version="1.1" id="Capa_1" xmlns="http://www.w3.org/2000/svg" xmlns:xlink="http://www.w3.org/1999/xlink" x="0px" y="0px"
	 viewBox="0 0 565.6 644.2" style="enable-background:new 0 0 565.6 644.2;" xml:space="preserve">
<g>
	<g>
		<g>
			<path d="M327,252h-85c-8.3,0-15,6.7-15,15s6.7,15,15,15h85c8.3,0,15-6.7,15-15S335.3,252,327,252z"/>
			<path d="M197.7,472H75c-24.9,0-45-20.1-45-45V75c0-24.9,20.1-45,45-45h275.9c24.9,0,45,20.1,45,45v191.6c0,8.1,6.2,15,14.2,15.4
				c8.6,0.4,15.8-6.5,15.8-15V75c0-41.4-33.6-75-75-75H75C33.6,0,0,33.6,0,75v352c0,41.4,33.6,75,75,75h122.7c8.3,0,15-6.7,15-15
				l0,0C212.7,478.7,206,472,197.7,472z"/>
			<path d="M128.7,167.1c8.3-0.6,16-4.6,21.2-11l46.7-56.5c2.6-3.1,3.7-7,3.4-11c-0.4-4-2.3-7.6-5.4-10.1c-2.7-2.2-6.1-3.4-9.5-3.4
				c-4.5,0-8.7,2-11.6,5.4l-43.2,52.3l-3.5,4.3l-3.9-4l-17-17.5c-2.8-2.9-6.7-4.5-10.7-4.5c-3.9,0-7.6,1.5-10.5,4.3
				c-5.9,5.8-6.1,15.3-0.3,21.2l21.5,22c0.1,0.1,0.3,0.3,0.4,0.4c5.5,5.2,13,8.2,20.6,8.2C127.4,167.1,128,167.1,128.7,167.1z"/>
			<path d="M128.7,410.9c8.3-0.6,16-4.6,21.2-11l46.7-56.5c2.6-3.1,3.7-7,3.4-11s-2.3-7.6-5.4-10.1c-2.7-2.2-6.1-3.4-9.5-3.4
				c-4.5,0-8.7,2-11.6,5.4l-43.2,52.3l-3.5,4.3l-3.9-4l-17.1-17.4c-2.8-2.9-6.7-4.5-10.7-4.5c-3.9,0-7.7,1.5-10.5,4.3
				c-5.9,5.8-6,15.3-0.2,21.2l21.5,21.9c0.1,0.1,0.2,0.2,0.4,0.4c5.5,5.2,13,8.2,20.6,8.2C127.4,411,128,411,128.7,410.9z"/>
			<path d="M327,129h-85c-8.3,0-15,6.7-15,15s6.7,15,15,15h85c8.3,0,15-6.7,15-15S335.3,129,327,129z"/>
			<path d="M128.7,289.9c8.3-0.6,16-4.6,21.2-11l46.7-56.5c2.6-3.1,3.7-7,3.4-11c-0.4-4-2.3-7.6-5.4-10.1c-2.7-2.2-6.1-3.4-9.5-3.4
				c-4.5,0-8.7,2-11.6,5.4l-43.2,52.3l-3.5,4.3l-3.9-4l-17.1-17.4c-2.8-2.9-6.7-4.5-10.7-4.5c-3.9,0-7.7,1.5-10.5,4.3
				c-5.9,5.8-6,15.3-0.2,21.2l21.5,21.9c0.1,0.1,0.2,0.2,0.4,0.4c5.5,5.2,13,8.2,20.6,8.2C127.4,290,128,290,128.7,289.9z"/>
		</g>
	</g>
</g>
<path d="M425.4,569.2v-165c0-8.3-6.7-15-15-15s-15,6.7-15,15v165c0,8.3,6.7,15,15,15S425.4,577.5,425.4,569.2z"/>
<path d="M327.7,501.9h165c8.3,0,15-6.7,15-15s-6.7-15-15-15h-165c-8.3,0-15,6.7-15,15S319.4,501.9,327.7,501.9z"/>
<g>
	<path d="M408.1,644.2c-86.9,0-157.5-70.7-157.5-157.5s70.7-157.5,157.5-157.5s157.5,70.7,157.5,157.5S494.9,644.2,408.1,644.2z
		 M408.1,355.2c-72.5,0-131.5,59-131.5,131.5s59,131.5,131.5,131.5s131.5-59,131.5-131.5S480.6,355.2,408.1,355.2z"/>
</g>
</svg>
