<svg id="Layer_1" data-name="Layer 1" xmlns="http://www.w3.org/2000/svg" xmlns:xlink="http://www.w3.org/1999/xlink" viewBox="0 0 512 511.99"><defs><style>.cls-1{fill:none;}.cls-2{clip-path:url(#clip-path);}</style><clipPath id="clip-path" transform="translate(0 0)"><rect class="cls-1" width="512" height="511.99"/></clipPath></defs><title>icon-home2</title><g class="cls-2"><path d="M503.87,231.43l-236.8-227a16,16,0,0,0-22.14,0L7.89,231.67a27,27,0,0,0-7.89,19,26.71,26.71,0,0,0,26.67,26.67H64V480a32,32,0,0,0,32,32h90.67a16,16,0,0,0,16-16V357.33A5.35,5.35,0,0,1,208,352h96a5.36,5.36,0,0,1,5.33,5.34V496a16,16,0,0,0,16,16H416a32,32,0,0,0,32-32V277.33h37.33A26.71,26.71,0,0,0,512,250.66a27.24,27.24,0,0,0-8.13-19.23" transform="translate(0 0)"/></g></svg>