<svg id="Layer_1" data-name="Layer 1" xmlns="http://www.w3.org/2000/svg" viewBox="0 0 470.19 470.19"><title>icon-phone3</title><path d="M463.17,371.49l-63.65-63.65a24,24,0,0,0-33.94,0L355,318.45l-6.36,6.37,6.36,6.36L439.83,416l6.36,6.36,6.37-6.36,10.61-10.6a24,24,0,0,0,0-33.95Z"/><path d="M138.92,115l6.36,6.36,6.37-6.36,10.61-10.6a24.05,24.05,0,0,0,0-33.95L98.62,7a24,24,0,0,0-34,0L54.14,17.45l-6.42,6.37,6.39,6.39Z"/><path d="M346.38,339.56l-6-6-6.34,5.59a55,55,0,0,1-75.34-2.4l-125.4-125.5a55.15,55.15,0,0,1-2.39-75.34l5.59-6.34-6-6L46,39.05l-7-7-6.3,7.59a140.89,140.89,0,0,0,8.83,190.12l198.69,198.8a140.66,140.66,0,0,0,190.13,8.83l7.57-6.31-7-7Z"/></svg>