<svg id="Layer_1" data-name="Layer 1" xmlns="http://www.w3.org/2000/svg" viewBox="0 0 427.16 512"><title>icon-user-3</title><path d="M426.13,393.7A304,304,0,0,0,422,361.35a254.26,254.26,0,0,0-8-32.53,160.71,160.71,0,0,0-13.37-30.33,114.34,114.34,0,0,0-20.16-26.28,89.06,89.06,0,0,0-29-18.2,92.24,92.24,0,0,0-12.88-4l-.78.81c-34.56,34.56-78.65,52.82-127.51,52.82-48.58,0-92.45-18.07-126.93-52.27-2.66.78-5.26,1.65-7.8,2.66a88.75,88.75,0,0,0-29,18.19A114.74,114.74,0,0,0,26.5,298.49a160.51,160.51,0,0,0-13.37,30.34,255.37,255.37,0,0,0-8,32.52A302.88,302.88,0,0,0,1,393.71c-.68,9.8-1,20-1,30.24,0,26.73,8.5,48.36,25.25,64.32C41.8,504,63.69,512,90.32,512H336.85c26.62,0,48.51-8,65.06-23.73,16.76-15.95,25.25-37.59,25.25-64.32C427.16,413.63,426.81,403.45,426.13,393.7Z"/><path d="M210.35,246.63c33.88,0,63.22-12.15,87.2-36.13s36.12-53.3,36.12-87.19S321.52,60.1,297.54,36.12,244.23,0,210.35,0s-63.22,12.15-87.19,36.13S87,89.43,87,123.31s12.16,63.23,36.13,87.2S176.48,246.63,210.35,246.63Z"/></svg>