<?xml version="1.0" encoding="utf-8"?>
<!-- Generator: Adobe Illustrator 23.0.5, SVG Export Plug-In . SVG Version: 6.00 Build 0)  -->
<svg version="1.1" id="Capa_1" xmlns="http://www.w3.org/2000/svg" xmlns:xlink="http://www.w3.org/1999/xlink" x="0px" y="0px"
	 viewBox="0 0 320 296.7" style="enable-background:new 0 0 320 296.7;" xml:space="preserve">
<g>
	<path d="M91.3,107.3L144,54.6V198c0,8.8,7.2,16,16,16s16-7.2,16-16V54.6l52.7,52.7c3.1,3.1,7.2,4.7,11.3,4.7s8.2-1.6,11.3-4.7
		c6.2-6.2,6.2-16.4,0-22.6l-80-80c-6.2-6.2-16.4-6.2-22.6,0l-80,80c-6.2,6.2-6.2,16.4,0,22.6C74.9,113.6,85.1,113.6,91.3,107.3
		L91.3,107.3z"/>
	<path d="M304,188.7c-8.8,0-16,7.2-16,16v44c0,8.8-7.2,16-16,16H48c-8.8,0-16-7.2-16-16v-44c0-8.8-7.2-16-16-16s-16,7.2-16,16v44
		c0,26.5,21.5,48,48,48h224c26.5,0,48-21.5,48-48v-44C320,195.8,312.8,188.7,304,188.7z"/>
</g>
</svg>
