<?xml version="1.0" encoding="utf-8"?>
<!-- Generator: Adobe Illustrator 23.0.5, SVG Export Plug-In . SVG Version: 6.00 Build 0)  -->
<svg version="1.1" id="Capa_1" xmlns="http://www.w3.org/2000/svg" xmlns:xlink="http://www.w3.org/1999/xlink" x="0px" y="0px"
	 viewBox="0 0 512 512" style="enable-background:new 0 0 512 512;" xml:space="preserve">
<path d="M373.3,512c-76.5,0-138.7-62.2-138.7-138.7c0-76.5,62.2-138.7,138.7-138.7c76.5,0,138.7,62.2,138.7,138.7
	C512,449.8,449.8,512,373.3,512z M373.3,266.7c-58.8,0-106.7,47.8-106.7,106.7S314.5,480,373.3,480S480,432.1,480,373.3
	S432.1,266.7,373.3,266.7z"/>
<path d="M373.3,448c-8.8,0-16-7.2-16-16V314.7c0-8.8,7.2-16,16-16s16,7.2,16,16V432C389.3,440.8,382.2,448,373.3,448z"/>
<path d="M432,389.3H314.7c-8.8,0-16-7.2-16-16s7.2-16,16-16H432c8.8,0,16,7.2,16,16S440.8,389.3,432,389.3z"/>
<path d="M197.1,426.7H58.7C26.3,426.7,0,400.4,0,368V58.7C0,26.3,26.3,0,58.7,0h224c32.4,0,58.7,26.3,58.7,58.7v138.5
	c0,8.8-7.2,16-16,16s-16-7.2-16-16V58.7c0-14.7-12-26.7-26.7-26.7h-224C44,32,32,44,32,58.7V368c0,14.7,12,26.7,26.7,26.7h138.5
	c8.8,0,16,7.2,16,16S206,426.7,197.1,426.7z"/>
<path d="M106.7,192C83.1,192,64,172.9,64,149.3s19.1-42.7,42.7-42.7s42.7,19.1,42.7,42.7S130.2,192,106.7,192z M106.7,138.7
	c-5.9,0-10.7,4.8-10.7,10.7c0,5.9,4.8,10.7,10.7,10.7s10.7-4.8,10.7-10.7C117.3,143.4,112.5,138.7,106.7,138.7z"/>
<path d="M16,330.7c-4.1,0-8.2-1.6-11.3-4.7c-6.3-6.3-6.3-16.4,0-22.6l43.5-43.5c14.1-14.1,38.8-14.1,52.9,0l26.9,26.9l101.5-101.5
	c14.1-14.1,38.8-14.1,52.9,0l11.5,11.5c6.3,6.3,6.3,16.4,0,22.6c-6.3,6.3-16.4,6.3-22.6,0l-11.5-11.5c-2.7-2.7-4.9-2.7-7.7,0
	L139.3,320.6c-6.3,6.3-16.4,6.3-22.6,0l-38.2-38.2c-2.7-2.7-4.9-2.7-7.7,0L27.3,326C24.2,329.1,20.1,330.7,16,330.7z"/>
</svg>
