<svg id="Layer_1" data-name="Layer 1" xmlns="http://www.w3.org/2000/svg" xmlns:xlink="http://www.w3.org/1999/xlink" viewBox="0 0 319.2 367.42"><defs><style>.cls-1{fill:none;}.cls-2{clip-path:url(#clip-path);}</style><clipPath id="clip-path" transform="translate(0 0)"><rect class="cls-1" width="319.2" height="367.42"/></clipPath></defs><title>icon-message6</title><g class="cls-2"><path d="M256,0H63.2A63.16,63.16,0,0,0,0,63.2V352.4a15,15,0,0,0,24,12l60.27-45.2H256A63.16,63.16,0,0,0,319.2,256V63.2A63.16,63.16,0,0,0,256,0M144.6,238.87H79.27a15,15,0,1,1,0-30H144.6a15,15,0,1,1,0,30m95.33-64.27H79.27a15,15,0,0,1,0-30H239.93a15,15,0,0,1,0,30m0-64.27H79.27a15,15,0,0,1,0-30H239.93a15,15,0,0,1,0,30" transform="translate(0 0)"/></g></svg>