<?xml version="1.0" encoding="utf-8"?>
<!-- Generator: Adobe Illustrator 23.0.5, SVG Export Plug-In . SVG Version: 6.00 Build 0)  -->
<svg version="1.1" id="Capa_1" xmlns="http://www.w3.org/2000/svg" xmlns:xlink="http://www.w3.org/1999/xlink" x="0px" y="0px"
	 viewBox="0 0 447.6 512" style="enable-background:new 0 0 447.6 512;" xml:space="preserve">
<g>
	<g>
		<path d="M223.8,0C186.4,0,156,30.4,156,67.8v26.7h34.8V67.8c0-18.2,14.8-33.1,33.1-33.1s33.1,14.8,33.1,33.1v26.7h34.8V67.8
			C291.7,30.4,261.2,0,223.8,0z"/>
	</g>
</g>
<g>
	<g>
		<path d="M401.8,245.3v113.7H367V245.3c0-79.9-64.2-145-143.2-145c-79,0-143.2,65-143.2,145v113.7H45.8V245.3
			c0-99.1,79.8-179.8,178-179.8S401.8,146.2,401.8,245.3z"/>
	</g>
</g>
<g>
	<g>
		<path d="M271.4,429.7c0,26.2-21.3,47.5-47.5,47.5h-1.2c-26.2,0-47.5-21.3-47.5-47.5h-34.8c0,45.4,36.9,82.3,82.3,82.3h1.2
			c45.4,0,82.3-36.9,82.3-82.3H271.4z"/>
	</g>
</g>
<g>
	<g>
		<path d="M401.8,326.4c-5.3-1.5-11-2.3-16.8-2.3h-18v34.8h18c15.3,0,27.8,12.5,27.8,27.4c-0.4,15.8-12.6,28.2-27.8,28.2H62.6
			c-15.3,0-27.8-12.5-27.8-27.8c0-15.3,12.5-27.8,27.8-27.8h18v-34.8h-18c-5.8,0-11.5,0.8-16.8,2.3C19.4,333.8,0,358,0,386.8
			c0,34.5,28.1,62.6,62.6,62.6H385c34.3,0,61.8-27.3,62.6-62.6C447.6,358,428.2,333.8,401.8,326.4z"/>
	</g>
</g>
</svg>
