<?xml version="1.0" encoding="utf-8"?>
<!-- Generator: Adobe Illustrator 23.0.5, SVG Export Plug-In . SVG Version: 6.00 Build 0)  -->
<svg version="1.1" id="Layer_1" xmlns="http://www.w3.org/2000/svg" xmlns:xlink="http://www.w3.org/1999/xlink" x="0px" y="0px"
	 viewBox="0 0 447 447" style="enable-background:new 0 0 447 447;" xml:space="preserve">
<path d="M309.2,356.4c-24.2-5.1-48.9-8-73.7-8.6v94.1c14.1-3.2,27.7-12.1,40.2-26.5C288.6,400.7,300.1,380.4,309.2,356.4z"/>
<path d="M295.5,431.2l0.4-0.1c2.2-0.8,4-1.4,5.8-2.1c1.6-0.6,3.2-1.2,4.7-1.9l0.2-0.1l0.9-0.4c1.6-0.7,3.2-1.3,4.8-2
	c1.6-0.7,3.2-1.4,4.8-2.2c2.1-1,3.8-1.8,5.4-2.6c1.6-0.8,3.2-1.6,4.7-2.5c1.9-1,3.6-1.9,5.2-2.9c1.4-0.8,2.9-1.7,4.6-2.7
	c1.7-1,3.4-2.1,5.1-3.2c1.7-1.1,3.1-2,4.4-2.9c1.6-1.1,3.3-2.3,4.9-3.4c1.5-1.1,2.9-2.1,4.3-3.1c1.9-1.4,3.4-2.6,4.8-3.7l0.3-0.3
	c1.3-1.1,2.6-2.1,3.8-3.1c1.3-1.1,2.6-2.2,3.9-3.4l0.7-0.6l0.8-0.7c1.1-1,2.2-1.9,3.2-2.9c1.3-1.2,2.6-2.5,3.9-3.8l0.5-0.5
	c0.2-0.2,0.4-0.4,0.6-0.6c-14.6-7.1-29.8-12.9-45.4-17.3c-8.6,25.8-22.5,49.7-40.4,70C293.4,431.9,294.4,431.5,295.5,431.2z"/>
<path d="M442.8,235.7h-87.7c-0.7,35.1-5.8,69.9-15.1,103.7c18.9,5.3,37.3,12.7,54.7,21.8c14.4-17.9,25.9-37.9,34.1-59.4
	C436.9,280.6,441.6,258.3,442.8,235.7z"/>
<path d="M331.2,211.7c-0.7-33.1-5.6-66-14.5-97.9c-26.7,5.8-53.9,9.1-81.2,9.7v88.2H331.2z"/>
<path d="M309.2,90.9c-9-23.9-20.5-44.3-33.4-59c-12.6-14.4-26.1-23.3-40.2-26.5v94.1C260.2,98.9,285,96,309.2,90.9z"/>
<path d="M235.5,235.7v88.2c27.3,0.6,54.6,3.9,81.2,9.7c8.9-31.9,13.8-64.8,14.5-97.9H235.5z"/>
<path d="M442.8,211.7c-1.2-22.7-5.9-44.9-14-66.2c-8.2-21.5-19.7-41.5-34.1-59.4c-17.4,9.2-35.8,16.5-54.7,21.8
	c9.4,33.8,14.5,68.7,15.1,103.7H442.8z"/>
<path d="M376.9,66.5c-1.2-1.2-2.5-2.4-3.7-3.6c-0.8-0.7-1.5-1.4-2.3-2.1c-0.6-0.5-1.1-1-1.7-1.5l-0.5-0.4c-1.3-1.2-2.7-2.4-4.1-3.6
	c-1.2-1-2.4-1.9-3.5-2.9l-0.6-0.5c-1.7-1.4-3.3-2.6-4.8-3.7c-1.4-1.1-2.9-2.1-4.3-3.1c-1.5-1.1-3.2-2.3-4.9-3.5
	c-1.3-0.9-2.8-1.8-4.4-2.9c-2-1.3-3.6-2.3-5.1-3.2c-1.6-1-3.1-1.8-4.6-2.7c-1.7-1-3.5-2-5.2-2.9c-0.8-0.4-1.6-0.8-2.4-1.2
	c-0.8-0.4-1.6-0.8-2.3-1.2c-1.8-0.9-3.6-1.8-5.5-2.6c-1.6-0.8-3.2-1.5-4.8-2.2c-1.2-0.5-2.4-1-3.7-1.6c-0.6-0.3-1.3-0.5-1.9-0.8
	c-1.5-0.6-3.2-1.3-4.8-1.9c-2-0.8-4-1.5-5.8-2.1c-1.2-0.4-2.4-0.8-3.5-1.2c18,20.3,31.9,44.2,40.5,70c15.6-4.4,30.9-10.2,45.5-17.3
	c-0.2-0.2-0.4-0.4-0.6-0.6L376.9,66.5z"/>
<path d="M52.3,86.1C37.9,104,26.4,124,18.2,145.5c-8.1,21.2-12.8,43.5-14,66.2h87.7c0.7-35.1,5.8-69.9,15.1-103.7
	C88.1,102.6,69.7,95.3,52.3,86.1z"/>
<path d="M137.8,356.4c9,23.9,20.5,44.3,33.4,59c12.6,14.4,26.1,23.3,40.2,26.5v-94.1C186.8,348.4,162,351.3,137.8,356.4z"/>
<path d="M115.8,235.7c0.7,33.1,5.6,66,14.5,97.9c26.6-5.8,53.9-9.1,81.2-9.7v-88.2H115.8z"/>
<path d="M171.3,31.9c-12.9,14.7-24.4,35-33.4,59c24.2,5.1,48.9,8,73.7,8.6V5.4C197.4,8.7,183.9,17.6,171.3,31.9z"/>
<path d="M130.3,113.8c-8.9,31.9-13.8,64.8-14.5,97.9h95.7v-88.2C184.2,122.9,157,119.7,130.3,113.8z"/>
<path d="M151.6,16.2l-0.4,0.1l-0.5,0.2c-1.7,0.6-3.5,1.2-5.2,1.9c-1.4,0.5-2.9,1.1-4.9,1.9l-1,0.4c-1.6,0.7-3.1,1.3-4.7,2
	c-1.5,0.7-3.1,1.4-4.8,2.2c-2.1,1-3.8,1.8-5.4,2.6c-1.5,0.8-3.1,1.6-4.7,2.5c-1.7,0.9-3.5,1.9-5.2,2.9c-1.6,0.9-3.1,1.8-4.6,2.7
	c-1.5,0.9-3,1.8-4.5,2.8l-0.6,0.4c-1.8,1.1-3.2,2-4.5,2.9c-1.6,1.1-3.3,2.3-4.9,3.4c-1.6,1.1-3,2.1-4.4,3.2
	c-0.9,0.7-1.8,1.4-2.8,2.2c-0.6,0.5-1.3,1-1.9,1.5l-0.7,0.6c-1.1,0.9-2.3,1.8-3.4,2.8c-1.3,1.1-2.6,2.2-3.9,3.4l-0.7,0.6
	c-0.4,0.3-0.8,0.7-1.2,1c-1,0.9-1.9,1.7-2.8,2.5c-1.3,1.2-2.5,2.4-3.8,3.7l-0.6,0.6c-0.2,0.2-0.4,0.4-0.6,0.6
	c14.6,7.1,29.8,12.9,45.4,17.3c8.6-25.8,22.5-49.7,40.5-70C153.7,15.4,152.6,15.8,151.6,16.2z"/>
<path d="M70.3,381c1.2,1.2,2.4,2.3,3.6,3.5c0.7,0.7,1.5,1.4,2.3,2.1c0.6,0.5,1.1,1,1.7,1.5l0.2,0.1c1.4,1.3,2.9,2.6,4.4,3.8
	c1.3,1.1,2.7,2.2,4.1,3.3l0.1,0c1.8,1.4,3.2,2.6,4.8,3.7c1,0.7,1.9,1.4,2.8,2.1c0.5,0.4,1,0.7,1.5,1.1c1.5,1.1,3.2,2.3,4.9,3.5
	c1.3,0.9,2.7,1.8,4.4,2.9c1.4,0.9,3.2,2.1,5.1,3.2c1.4,0.9,3,1.8,4.6,2.7c1.8,1,3.5,2,5.2,2.9c0.8,0.4,1.6,0.8,2.4,1.2
	c0.8,0.4,1.6,0.8,2.4,1.2c1.8,0.9,3.5,1.8,5.5,2.7c1.6,0.8,3.2,1.5,4.8,2.2c1.2,0.6,2.5,1.1,3.8,1.6c0.6,0.3,1.2,0.5,1.8,0.8
	c1.5,0.6,3.2,1.3,4.8,1.9c2,0.8,4,1.5,5.8,2.1l0.4,0.1c1,0.4,2.1,0.7,3.2,1.1c-18-20.3-31.9-44.2-40.5-70
	c-15.6,4.4-30.9,10.2-45.4,17.3c0.2,0.2,0.4,0.4,0.6,0.6L70.3,381z"/>
<path d="M52.3,361.2c17.4-9.2,35.7-16.5,54.7-21.8c-9.4-33.8-14.5-68.7-15.1-103.7H4.2c1.2,22.7,5.9,44.9,14,66.2
	C26.4,323.3,37.9,343.3,52.3,361.2z"/>
</svg>
