<?xml version="1.0" encoding="utf-8"?>
<!-- Generator: Adobe Illustrator 23.0.5, SVG Export Plug-In . SVG Version: 6.00 Build 0)  -->
<svg version="1.1" id="Layer_1" xmlns="http://www.w3.org/2000/svg" xmlns:xlink="http://www.w3.org/1999/xlink" x="0px" y="0px"
	 viewBox="0 0 33 31" style="enable-background:new 0 0 33 31;" xml:space="preserve">
<style type="text/css">
	.st0{fill-rule:evenodd;clip-rule:evenodd;}
</style>
<path id="Rounded_Rectangle_2_copy_2" class="st0" d="M2.5,0h28C31.9,0,33,1.1,33,2.5v0.1C33,3.9,31.9,5,30.5,5H2.5
	C1.1,5,0,3.9,0,2.5l0,0C0,1.1,1.1,0,2.5,0C2.5,0,2.5,0,2.5,0z M2.5,13h28c1.4,0,2.5,1.1,2.5,2.5v0.1c0,1.4-1.1,2.5-2.5,2.5H2.5
	C1.1,18,0,16.9,0,15.5l0,0C0,14.1,1.1,13,2.5,13C2.5,13,2.5,13,2.5,13z M2.5,26h28c1.4,0,2.5,1.1,2.5,2.5v0.1c0,1.4-1.1,2.5-2.5,2.5
	H2.5C1.1,31,0,29.9,0,28.5C0,27.1,1.1,26,2.5,26C2.5,26,2.5,26,2.5,26z"/>
</svg>
