<?xml version="1.0" encoding="utf-8"?>
<!-- Generator: Adobe Illustrator 23.0.5, SVG Export Plug-In . SVG Version: 6.00 Build 0)  -->
<svg version="1.1" id="Layer_1" xmlns="http://www.w3.org/2000/svg" xmlns:xlink="http://www.w3.org/1999/xlink" x="0px" y="0px"
	 viewBox="0 0 548.2 475.1" style="enable-background:new 0 0 548.2 475.1;" xml:space="preserve">
<g>
	<g>
		<path d="M526.8,94.5c-14.3-14.3-31.5-21.4-51.7-21.4h-64l-14.6-38.8c-3.6-9.3-10.2-17.4-19.8-24.1C367.1,3.4,357.3,0,347.2,0H201
			c-10.1,0-19.9,3.4-29.6,10.1c-9.6,6.8-16.2,14.8-19.8,24.1L137,73.1h-64c-20.2,0-37.4,7.1-51.7,21.4C7.1,108.8,0,126,0,146.2V402
			c0,20.2,7.1,37.4,21.4,51.7c14.3,14.3,31.5,21.4,51.7,21.4h402c20.2,0,37.4-7.1,51.7-21.4c14.3-14.3,21.4-31.5,21.4-51.7V146.2
			C548.2,126,541,108.8,526.8,94.5z M364.4,364.5c-25,25-55.1,37.5-90.4,37.5s-65.3-12.5-90.4-37.5c-25-25-37.5-55.2-37.5-90.4
			c0-35.2,12.5-65.3,37.5-90.4c25-25,55.1-37.5,90.4-37.5s65.3,12.5,90.4,37.5c25,25,37.5,55.1,37.5,90.4
			C402,309.3,389.5,339.4,364.4,364.5z"/>
		<path d="M274.1,191.9c-22.7,0-42,8-58.1,24.1c-16.1,16.1-24.1,35.4-24.1,58.1c0,22.6,8,42,24.1,58.1
			c16.1,16.1,35.4,24.1,58.1,24.1c22.6,0,42-8,58.1-24.1c16.1-16.1,24.1-35.5,24.1-58.1c0-22.7-8-42-24.1-58.1
			C316.1,199.9,296.7,191.9,274.1,191.9z"/>
	</g>
</g>
</svg>
