<?xml version="1.0" encoding="utf-8"?>
<!-- Generator: Adobe Illustrator 23.0.5, SVG Export Plug-In . SVG Version: 6.00 Build 0)  -->
<svg version="1.1" id="Layer_1" xmlns="http://www.w3.org/2000/svg" xmlns:xlink="http://www.w3.org/1999/xlink" x="0px" y="0px"
	 viewBox="0 0 432.7 432.5" style="enable-background:new 0 0 432.7 432.5;" xml:space="preserve">
<path d="M216.3,0C97,0,0,97,0,216.3c0,55.8,21.3,108.7,59.9,149.1c37.8,39.5,88.4,63.1,142.7,66.5v0.5h3H227h3V432
	c54.3-3.4,104.9-27,142.7-66.5c38.6-40.4,59.9-93.4,59.9-149.1C432.7,97,335.6,0,216.3,0z M315.3,216.3c0-24.3-1.8-48.4-5.4-71.7
	h81.3c9.4,22.8,14.1,46.9,14.1,71.7c0,24.8-4.7,48.9-14.1,71.7h-81.3C313.5,264.8,315.3,240.7,315.3,216.3z M271.8,35.9
	c43.5,13.4,81.3,42.6,105.3,81.5h-72.4C297.1,84.1,285.8,56.2,271.8,35.9z M288,216.3c0,24.7-1.9,48.8-5.7,71.7H150.4
	c-3.8-22.9-5.7-47-5.7-71.7s1.9-48.8,5.7-71.7h131.8C286.1,167.5,288,191.6,288,216.3z M156,117.3c6.7-26.7,16-49.3,27-65.5
	c10.7-15.8,22.5-24.5,33.3-24.5S239,36,249.7,51.8c11,16.2,20.3,38.8,27,65.5H156z M55.6,117.3c24-38.8,61.8-68,105.3-81.5
	c-14,20.3-25.3,48.2-32.9,81.5H55.6z M128,315.3c7.6,33.3,18.9,61.2,32.9,81.5c-43.5-13.4-81.3-42.6-105.3-81.5H128z M156,315.3
	h120.6c-6.7,26.7-16,49.3-27,65.5c-10.7,15.8-22.5,24.5-33.3,24.5c-10.8,0-22.6-8.7-33.3-24.5C172,364.7,162.7,342.1,156,315.3z
	 M377.1,315.3c-24,38.8-61.8,68-105.3,81.5c14-20.3,25.3-48.2,32.9-81.5H377.1z M122.8,288H41.4c-9.4-22.8-14.1-46.9-14.1-71.7
	s4.7-48.9,14.1-71.7h81.3c-3.6,23.2-5.4,47.3-5.4,71.7C117.3,240.7,119.2,264.8,122.8,288z"/>
</svg>
