<?xml version="1.0" encoding="utf-8"?>
<!-- Generator: Adobe Illustrator 23.0.5, SVG Export Plug-In . SVG Version: 6.00 Build 0)  -->
<svg version="1.1" id="Layer_1" xmlns="http://www.w3.org/2000/svg" xmlns:xlink="http://www.w3.org/1999/xlink" x="0px" y="0px"
	 viewBox="0 0 57.1 50" style="enable-background:new 0 0 57.1 50;" xml:space="preserve">
<style type="text/css">
	.st0{fill-rule:evenodd;clip-rule:evenodd;}
</style>
<path id="Menu" class="st0" d="M3.8,0H32c2.1,0,3.8,1.6,3.8,3.7c0,2.1-1.6,3.8-3.7,3.8c0,0-0.1,0-0.1,0H3.8C1.7,7.6,0,5.9,0,3.8
	C0,1.7,1.6,0,3.7,0C3.7,0,3.8,0,3.8,0z M3.8,21.3h49.6c2.1,0,3.7,1.7,3.7,3.7c0,0,0,0,0,0l0,0c0,2.1-1.7,3.7-3.7,3.7H3.8
	c-2.1,0-3.7-1.7-3.7-3.7l0,0C0.1,22.9,1.7,21.3,3.8,21.3C3.8,21.3,3.8,21.3,3.8,21.3L3.8,21.3z M3.8,42.5h39.4
	c2.1,0,3.7,1.7,3.7,3.8c0,2-1.7,3.7-3.7,3.7H3.8C1.7,50,0,48.4,0,46.3c0-2.1,1.6-3.8,3.7-3.8C3.7,42.5,3.8,42.5,3.8,42.5L3.8,42.5z"
	/>
</svg>
