<?xml version="1.0" encoding="utf-8"?>
<!-- Generator: Adobe Illustrator 23.0.5, SVG Export Plug-In . SVG Version: 6.00 Build 0)  -->
<svg version="1.1" id="Layer_1" xmlns="http://www.w3.org/2000/svg" xmlns:xlink="http://www.w3.org/1999/xlink" x="0px" y="0px"
	 viewBox="0 0 325.4 230" style="enable-background:new 0 0 325.4 230;" xml:space="preserve">
<path d="M325.4,0H0v230h146.4h16.3h162.7V0z M272.6,171.3c3.4,3,3.6,8.2,0.6,11.6c-1.6,1.8-3.9,2.7-6.2,2.7c-1.9,0-3.9-0.6-5.4-2.1
	l-70.2-62.9l-23.7,18.4c-1.5,1.2-3.3,1.7-5.1,1.7c-1.8,0-3.6-0.5-5.1-1.7l-23-17.8l-70.9,62.5c-1.5,1.4-3.5,2.1-5.4,2.1
	c-2.3,0-4.5-1-6.2-2.8c-3-3.4-2.7-8.5,0.8-11.5l68.5-60.4L53.3,58c-3.6-2.8-4.3-7.9-1.4-11.5c2.8-3.6,7.9-4.3,11.5-1.4l76,58.9
	l23.4,18.2l99.5-77.2c3.5-2.8,8.7-2.2,11.5,1.4c2.8,3.5,2.2,8.7-1.4,11.5l-67.5,52.4L272.6,171.3z"/>
</svg>
