<svg id="Layer_1" data-name="Layer 1" xmlns="http://www.w3.org/2000/svg" xmlns:xlink="http://www.w3.org/1999/xlink" viewBox="0 0 462.52 402.64"><defs><style>.cls-1{fill:none;}.cls-2{clip-path:url(#clip-path);}</style><clipPath id="clip-path" transform="translate(0 0)"><rect class="cls-1" width="462.52" height="402.64"/></clipPath></defs><title>icon-horn</title><g class="cls-2"><path d="M23.21,111.54v85.14H7.34A7.34,7.34,0,0,1,0,189.34V118.88a7.34,7.34,0,0,1,7.34-7.34Z" transform="translate(0 0)"/><path d="M185.31,402.49a.28.28,0,0,1-.29.15H127.34a.34.34,0,0,1-.33-.22L73.77,255.51h58.42l53.16,146.65a.28.28,0,0,1,0,.33" transform="translate(0 0)"/><path d="M129.19,77.45V230.77s-67.92,0-68.21,0a13,13,0,0,1-4.79-1.18A13.9,13.9,0,0,1,48,216.87V91.35a13.93,13.93,0,0,1,13.91-13.9Z" transform="translate(0 0)"/><path d="M400,.58v307a.45.45,0,0,1-.26.48.57.57,0,0,1-.66,0,613.15,613.15,0,0,0-245.19-76v-156A613.5,613.5,0,0,0,399.1.11a.59.59,0,0,1,.67,0,.45.45,0,0,1,.26.48" transform="translate(0 0)"/><path d="M462.52,154.09a47.09,47.09,0,0,1-37.75,46.09V108a47.09,47.09,0,0,1,37.75,46.09" transform="translate(0 0)"/></g></svg>