<svg id="Layer_1" data-name="Layer 1" xmlns="http://www.w3.org/2000/svg" viewBox="0 0 631.04 588.88"><title>icon-calendar</title><path d="M127.25,174.51a41.85,41.85,0,0,0,41.86-41.85V41.85a41.85,41.85,0,1,0-83.7,0v90.82A41.84,41.84,0,0,0,127.25,174.51Z"/><path d="M383.58,174.51a41.84,41.84,0,0,0,41.86-41.85V41.85a41.85,41.85,0,1,0-83.69,0v90.82A41.83,41.83,0,0,0,383.58,174.51Z"/><path d="M184,290.71a21.61,21.61,0,0,0-21.64-21.62h-40.1a21.65,21.65,0,0,0-21.66,21.62V330.8a21.67,21.67,0,0,0,21.66,21.67h40.1A21.64,21.64,0,0,0,184,330.8Z"/><path d="M297.13,290.74a21.62,21.62,0,0,0-21.61-21.62H235.4a21.61,21.61,0,0,0-21.62,21.62v40.1a21.63,21.63,0,0,0,21.62,21.63h40.12a21.63,21.63,0,0,0,21.61-21.63Z"/><path d="M403,274.59a181.38,181.38,0,0,0-74.29,64.82,20.68,20.68,0,0,1-1.85-8.61V290.71a21.64,21.64,0,0,1,21.66-21.62h40.06A21.55,21.55,0,0,1,403,274.59Z"/><path d="M122.22,377.75a21.64,21.64,0,0,0-21.65,21.62v40.11a21.64,21.64,0,0,0,21.65,21.61h40.13A21.6,21.6,0,0,0,184,439.48V399.37a21.6,21.6,0,0,0-21.61-21.62Z"/><path d="M275.47,377.77H235.39a21.62,21.62,0,0,0-21.62,21.64v40.07a21.61,21.61,0,0,0,21.62,21.61h40.08a21.62,21.62,0,0,0,21.62-21.61V399.41A21.64,21.64,0,0,0,275.47,377.77Z"/><path d="M352.35,565.09a179.58,179.58,0,0,1-38.63-57.27q-1.11-2.64-2.13-5.31H130.47A63.59,63.59,0,0,1,67,439V226.51h377V261a182,182,0,0,1,66.93-.9V81.12H450.55v51.54a67,67,0,0,1-133.92,0V81.13H194.21v51.53a67,67,0,0,1-133.92,0V81.13H0V439A130.48,130.48,0,0,0,130.47,569.49H356.92C355.38,568.05,353.85,566.59,352.35,565.09Z"/><path d="M536.16,423.05H501.07a25.85,25.85,0,0,0-21.26-11.23c-.13,0-.28.05-.44.05l-32-45a14.61,14.61,0,0,0-23.79,17l32,45a26.11,26.11,0,0,0-1.62,8.84,25.8,25.8,0,0,0,47.08,14.59h35.09a14.61,14.61,0,0,0,0-29.22Z"/><path d="M479.81,286.4A151.24,151.24,0,1,0,631,437.67,151.3,151.3,0,0,0,479.81,286.4Zm9.71,263.06V536.41a9.73,9.73,0,1,0-19.46,0v13.05A112.34,112.34,0,0,1,368,447.39h13.1a9.73,9.73,0,0,0,0-19.46H368A112.36,112.36,0,0,1,470.06,325.86v13.08a9.73,9.73,0,1,0,19.46,0V325.86A112.32,112.32,0,0,1,591.59,427.93h-13.1a9.73,9.73,0,0,0,0,19.46h13.1A112.32,112.32,0,0,1,489.52,549.46Z"/></svg>