<svg id="Layer_1" data-name="Layer 1" xmlns="http://www.w3.org/2000/svg" viewBox="0 0 163.67 163.67"><title>icon-add2</title><path d="M90.58,155.29l-.35-60.46v0a4.72,4.72,0,0,1,4.68-4.73h0l60.47-.34a8.33,8.33,0,0,0-.1-16.66l-60.46.35h0a4.71,4.71,0,0,1-4.73-4.67v0L89.74,8.28a8.29,8.29,0,0,0-2.51-5.84A8.24,8.24,0,0,0,81.36,0a8.45,8.45,0,0,0-8.28,8.37l.35,60.47h0a4.69,4.69,0,0,1-4.67,4.73h0l-60.46.35a8.21,8.21,0,0,0-5.84,2.51,8.15,8.15,0,0,0,.07,11.7,8.22,8.22,0,0,0,5.86,2.44l60.47-.35h0a4.7,4.7,0,0,1,4.73,4.68h0l.35,60.47a8.45,8.45,0,0,0,8.37,8.28A8.44,8.44,0,0,0,90.58,155.29Z"/></svg>