<?xml version="1.0" encoding="utf-8"?>
<!-- Generator: Adobe Illustrator 23.0.5, SVG Export Plug-In . SVG Version: 6.00 Build 0)  -->
<svg version="1.1" id="Capa_1" xmlns="http://www.w3.org/2000/svg" xmlns:xlink="http://www.w3.org/1999/xlink" x="0px" y="0px"
	 viewBox="0 0 511.9 612" style="enable-background:new 0 0 511.9 612;" xml:space="preserve">
<g>
	<g>
		<path d="M490.3,19.4H339.3C338.3,8.5,329.1,0,317.9,0H194c-11.2,0-20.4,8.5-21.5,19.4H21.6C9.7,19.4,0,29.1,0,41v41
			c0,11.9,9.7,21.6,21.6,21.6h468.7c11.9,0,21.6-9.7,21.6-21.6V41C511.9,29.1,502.2,19.4,490.3,19.4z"/>
		<path d="M45.3,145.2v445.2c0,11.9,9.7,21.6,21.6,21.6H445c11.9,0,21.6-9.7,21.6-21.6V145.2H45.3z M203.4,479.3
			c0,13.1-10.7,23.8-23.8,23.8c-13.2,0-23.8-10.7-23.8-23.8V243.3c0-13.1,10.7-23.8,23.8-23.8c13.1,0,23.8,10.7,23.8,23.8V479.3z
			 M356.1,479.3c0,13.1-10.7,23.8-23.8,23.8s-23.8-10.7-23.8-23.8V243.3c0-13.1,10.7-23.8,23.8-23.8s23.8,10.7,23.8,23.8V479.3z"/>
	</g>
</g>
</svg>
