<svg id="Layer_1" data-name="Layer 1" xmlns="http://www.w3.org/2000/svg" viewBox="0 0 438 468"><defs><style>.cls-1{stroke:#fff;stroke-miterlimit:10;}</style></defs><title>icon-window</title><path class="cls-1" d="M261,251.64,258.9,450.71H452.61V251.64ZM315.3,373.8a6,6,0,0,1-1.55-8.34l.06-.09,45.59-65.31a6,6,0,0,1,9.84,6.87l-45.6,65.31A6,6,0,0,1,315.3,373.8Zm69.81-34.44L360,379a6,6,0,0,1-10.13-6.43L375,332.94a6,6,0,1,1,10.13,6.42Z" transform="translate(-37 -22)"/><path d="M452.61,22H263.51l-2.34,217.64H452.61Z" transform="translate(-37 -22)"/><path d="M62.54,450.71H246.89L249,251.64H62.54Z" transform="translate(-37 -22)"/><path d="M62.54,22V239.64H249.17L251.51,22ZM107,121a6,6,0,0,1-1.49-8.36l45.6-65.31a6,6,0,0,1,9.84,6.87l-45.6,65.31A6,6,0,0,1,107,121Zm69.81-34.36-25.15,39.63a6,6,0,0,1-10.13-6.43l25.15-39.63a6,6,0,0,1,10.13,6.43Z" transform="translate(-37 -22)"/><path d="M252.77,462.71H37V490H475V462.71H252.77Z" transform="translate(-37 -22)"/></svg>