<?xml version="1.0" encoding="utf-8"?>
<!-- Generator: Adobe Illustrator 23.0.5, SVG Export Plug-In . SVG Version: 6.00 Build 0)  -->
<svg version="1.1" id="Layer_1" xmlns="http://www.w3.org/2000/svg" xmlns:xlink="http://www.w3.org/1999/xlink" x="0px" y="0px"
	 viewBox="0 0 33 31" style="enable-background:new 0 0 33 31;" xml:space="preserve">
<style type="text/css">
	.st0{fill-rule:evenodd;clip-rule:evenodd;}
</style>
<path id="Rounded_Rectangle_2_copy_2" class="st0" d="M2.5,0h28C31.9,0,33,1.1,33,2.5v0.1C33,3.9,31.9,5,30.5,5H2.5
	C1.1,5,0,3.9,0,2.5l0,0C0,1.1,1.1,0,2.5,0C2.5,0,2.5,0,2.5,0z M7.5,13h18c1.4,0,2.5,1.1,2.5,2.5v0.1c0,1.4-1.1,2.5-2.5,2.5H7.5
	C6.1,18,5,16.9,5,15.5C5,14.1,6.1,13,7.5,13C7.5,13,7.5,13,7.5,13z M12.5,26h8c1.4,0,2.5,1.1,2.5,2.5v0.1c0,1.4-1.1,2.5-2.5,2.5
	h-8.1c-1.4,0-2.5-1.1-2.5-2.5C10,27.1,11.1,26,12.5,26C12.5,26,12.5,26,12.5,26z"/>
</svg>
