<?xml version="1.0" encoding="utf-8"?>
<!-- Generator: Adobe Illustrator 23.0.5, SVG Export Plug-In . SVG Version: 6.00 Build 0)  -->
<svg version="1.1" id="Layer_1" xmlns="http://www.w3.org/2000/svg" xmlns:xlink="http://www.w3.org/1999/xlink" x="0px" y="0px"
	 viewBox="0 0 511 485.5" style="enable-background:new 0 0 511 485.5;" xml:space="preserve">
<style type="text/css">
	.st0{clip-path:url(#SVGID_2_);}
</style>
<title>icon-msg2</title>
<g>
	<defs>
		<rect id="SVGID_1_" x="41" y="19.8" width="432" height="432"/>
	</defs>
	<clipPath id="SVGID_2_">
		<use xlink:href="#SVGID_1_"  style="overflow:visible;"/>
	</clipPath>
	<g class="st0">
		<path d="M257,19.8c-119.1,0-216,91.8-216,204.7c0,39.4,11.8,77.7,34.3,110.7c-4.2,49.5-15.7,86.3-32.2,103.8
			c-2.8,3-2.8,7.8,0,10.7c1.3,1.4,3.2,2.2,5.1,2.2c0.3,0,0.7,0,1-0.1c2.9-0.4,70.7-10.7,119.7-40.5c28,11.9,58,17.9,88.2,17.8
			c119.1,0,216-91.8,216-204.7S376.1,19.8,257,19.8 M156.2,254.7c-15.9,0-28.8-13.6-28.8-30.3c0-16.7,12.9-30.3,28.8-30.3
			c15.9,0,28.8,13.6,28.8,30.3c0,0,0,0,0,0.1C185,241.1,172.1,254.6,156.2,254.7 M257,254.7c-15.9,0-28.8-13.6-28.8-30.3
			c0-16.7,12.9-30.3,28.8-30.3c15.9,0,28.8,13.6,28.8,30.3c0,0,0,0,0,0.1C285.8,241.1,272.9,254.6,257,254.7 M357.8,254.7
			c-15.9,0-28.8-13.6-28.8-30.3s12.9-30.3,28.8-30.3c15.9,0,28.8,13.6,28.8,30.3c0,0,0,0,0,0.1C386.6,241.1,373.7,254.6,357.8,254.7
			"/>
	</g>
</g>
</svg>
