<?xml version="1.0" encoding="utf-8"?>
<!-- Generator: Adobe Illustrator 23.0.5, SVG Export Plug-In . SVG Version: 6.00 Build 0)  -->
<svg version="1.1" id="Capa_1" xmlns="http://www.w3.org/2000/svg" xmlns:xlink="http://www.w3.org/1999/xlink" x="0px" y="0px"
	 viewBox="0 0 512 512" style="enable-background:new 0 0 512 512;" xml:space="preserve">
<g>
	<path d="M143.9,382.8c18.6-14.5,30.7-37.1,30.7-62.5c0-43.7-35.6-79.3-79.3-79.3s-79.3,35.6-79.3,79.3c0,25.4,12,48,30.7,62.5
		C20.4,398.5,0,428,0,464.9V497c0,8.3,6.7,15,15,15h160.7c8.3,0,15-6.7,15-15v-32.1C190.7,428,170.3,398.5,143.9,382.8z M46.1,320.3
		c0-27.2,22.1-49.3,49.3-49.3c27.2,0,49.3,22.1,49.3,49.3c0,27.2-22.1,49.3-49.3,49.3C68.2,369.5,46.1,347.4,46.1,320.3z M160.7,482
		H30v-17.1c0-36.1,29.2-65.3,65.3-65.3c36.1,0,65.3,29.2,65.3,65.3L160.7,482L160.7,482z"/>
	<path d="M448.8,0H256c-34.9,0-63.2,28.2-63.2,63.2v289.2c0,12.3,14.1,19.4,24,12l60.3-45.2h171.7c34.9,0,63.2-28.2,63.2-63.2V63.2
		C512,28.3,483.8,0,448.8,0z M482,256c0,18.4-14.8,33.2-33.2,33.2H272.1c-3.2,0-6.4,1.1-9,3l-40.3,30.2V63.2
		c0-18.4,14.8-33.2,33.2-33.2h192.8c18.4,0,33.2,14.8,33.2,33.2V256z"/>
	<path d="M432.7,80.3H272.1c-8.3,0-15,6.7-15,15c0,8.3,6.7,15,15,15h160.7c8.3,0,15-6.7,15-15C447.7,87.1,441,80.3,432.7,80.3z"/>
	<path d="M432.7,144.6H272.1c-8.3,0-15,6.7-15,15c0,8.3,6.7,15,15,15h160.7c8.3,0,15-6.7,15-15C447.7,151.3,441,144.6,432.7,144.6z"
		/>
	<path d="M352.4,208.9h-80.3c-8.3,0-15,6.7-15,15s6.7,15,15,15h80.3c8.3,0,15-6.7,15-15S360.7,208.9,352.4,208.9z"/>
</g>
</svg>
