<?xml version="1.0" encoding="utf-8"?>
<!-- Generator: Adobe Illustrator 23.0.5, SVG Export Plug-In . SVG Version: 6.00 Build 0)  -->
<svg version="1.1" id="Layer_1" xmlns="http://www.w3.org/2000/svg" xmlns:xlink="http://www.w3.org/1999/xlink" x="0px" y="0px"
	 viewBox="0 0 18 74" style="enable-background:new 0 0 18 74;" xml:space="preserve">
<style type="text/css">
	.st0{fill-rule:evenodd;clip-rule:evenodd;}
</style>
<path id="Ellipse_1_copy_2" class="st0" d="M9,0c5,0,9,4,9,9s-4,9-9,9s-9-4-9-9S4,0,9,0z M9,28c5,0,9,4,9,9s-4,9-9,9s-9-4-9-9
	S4,28,9,28z M9,56c5,0,9,4,9,9s-4,9-9,9s-9-4-9-9S4,56,9,56z"/>
</svg>
