<?xml version="1.0" encoding="utf-8"?>
<!-- Generator: Adobe Illustrator 23.0.5, SVG Export Plug-In . SVG Version: 6.00 Build 0)  -->
<svg version="1.1" id="Capa_1" xmlns="http://www.w3.org/2000/svg" xmlns:xlink="http://www.w3.org/1999/xlink" x="0px" y="0px"
	 viewBox="0 0 512 512" style="enable-background:new 0 0 512 512;" xml:space="preserve">
<path d="M373.3,234.7c-76.5,0-138.7,62.2-138.7,138.7c0,76.5,62.2,138.7,138.7,138.7c76.5,0,138.7-62.2,138.7-138.7
	C512,296.9,449.8,234.7,373.3,234.7z M414.5,372.3c3,6.2,4.5,12.9,4.5,19.8c0,14.6-7,28.3-18.8,36.9c-0.9,0.6-2,0.8-3,0.4
	c-1-0.4-1.7-1.2-1.9-2.3c-3.9-19.1-12.7-31.9-22-31.9c-0.9,0-1.8,0.1-2.7,0.4c-8.1,2.2-15.4,13.9-19,30.5v0c-0.1,0.3-0.1,0.7-0.2,1
	c-0.2,1-0.9,1.9-1.9,2.3c-1,0.4-2.1,0.2-3-0.4c-11.8-8.6-18.7-22.3-18.8-36.9c0-6.8,1.5-13.6,4.5-19.8c0.3-0.6,0.4-1.2,0.4-1.9
	c0-0.8-0.2-1.5-0.6-2.2c-11.4-19.2-13.1-36.6-4.2-45.4c7.9-7.9,22.2-7.6,39.2,0.8c4,2,8.7,2,12.7,0c14.4-7.1,26.8-8.4,35.1-3.9
	c0.8,0.4,1.5,0.9,2.1,1.4c0,0,0.1,0,0.1,0.1c0.6,0.5,1.3,1,1.8,1.6c8.8,8.8,7.2,26.2-4.2,45.4c-0.4,0.7-0.6,1.4-0.6,2.2
	C414,371.1,414.2,371.7,414.5,372.3z"/>
<path d="M202.7,373.3c0-94.1,76.6-170.7,170.7-170.7c18.6,0,36.5,3.1,53.3,8.7v-58H0v193.3c0,32.4,26.2,58.7,58.7,58.7h147.1
	C203.8,394.9,202.7,384.3,202.7,373.3z"/>
<path d="M368,41.7h-18.7v42.7c0,16.2-13.2,29.3-29.3,29.3s-29.3-13.2-29.3-29.3V41.7H136v42.7c0,16.2-13.2,29.3-29.3,29.3
	c-16.2,0-29.3-13.2-29.3-29.3V41.7H58.7C26.2,41.7,0,67.9,0,100.3v44h426.7v-44C426.7,67.9,400.4,41.7,368,41.7z"/>
<path d="M127,20.3C127,9.1,117.9,0,106.7,0C95.5,0,86.3,9.1,86.3,20.3v64c0,11.2,9.1,20.3,20.3,20.3c11.2,0,20.3-9.1,20.3-20.3V20.3
	z"/>
<path d="M340.3,20.3C340.3,9.1,331.2,0,320,0s-20.3,9.1-20.3,20.3v64c0,11.2,9.1,20.3,20.3,20.3s20.3-9.1,20.3-20.3V20.3z"/>
</svg>
