<svg id="Layer_1" data-name="Layer 1" xmlns="http://www.w3.org/2000/svg" xmlns:xlink="http://www.w3.org/1999/xlink" viewBox="0 0 512.01 384.01"><defs><style>.cls-1{fill:none;}.cls-2{clip-path:url(#clip-path);}</style><clipPath id="clip-path" transform="translate(0 0)"><rect class="cls-1" width="512.01" height="384.01"/></clipPath></defs><title>icon-password-hidden</title><g class="cls-2"><path d="M256,42.67C124.58,42.67,7.46,179.29,2.53,185.12a10.65,10.65,0,0,0,0,13.78c2.94,3.47,46,53.46,108.07,93.27l66.86-66.86A85.29,85.29,0,0,1,289.31,113.46l55-55C317.49,48.9,288.07,42.67,256,42.67" transform="translate(0 0)"/><path d="M510.11,185.93c-2.73-4-48-67.69-124.16-108.78L444.9,18.2A10.67,10.67,0,1,0,429.81,3.12L67.15,365.79a10.67,10.67,0,0,0,15.08,15.1L149.11,314c33,16.09,69.31,27.33,106.9,27.33,131.44,0,248.56-136.62,253.48-142.44a10.69,10.69,0,0,0,.62-13M256,277.34a84.57,84.57,0,0,1-52-18.2L323.15,140A84.88,84.88,0,0,1,256,277.34" transform="translate(0 0)"/></g></svg>