<?xml version="1.0" encoding="utf-8"?>
<!-- Generator: Adobe Illustrator 23.0.5, SVG Export Plug-In . SVG Version: 6.00 Build 0)  -->
<svg version="1.1" id="Capa_1" xmlns="http://www.w3.org/2000/svg" xmlns:xlink="http://www.w3.org/1999/xlink" x="0px" y="0px"
	 viewBox="0 0 492.7 426.8" style="enable-background:new 0 0 492.7 426.8;" xml:space="preserve">
<g>
	<g id="Icons_18_">
		<g>
			<path d="M359.7,50c45.8,0,83.1,37.3,83.1,83.1c0,23.9-10.4,46.7-28.5,62.5l-1.3,1.1l-1.2,1.2L246.4,363.2L81,197.9l-1.2-1.2
				l-1.3-1.1C60.4,179.7,50,157,50,133.1C50,87.3,87.3,50,133,50c29,0,55.4,14.9,70.7,39.8l42.6,69.3L289,89.8
				C304.3,64.9,330.7,50,359.7,50 M359.7,0c-48,0-89.9,25.5-113.3,63.6C222.9,25.5,181,0,133,0C59.6,0,0,59.6,0,133.1
				c0,40,17.7,75.8,45.7,100.2l188.5,188.6c3.2,3.2,7.6,5,12.1,5c4.6,0,8.9-1.8,12.1-5L447,233.2c27.9-24.4,45.7-60.2,45.7-100.2
				C492.7,59.6,433.1,0,359.7,0L359.7,0z"/>
		</g>
	</g>
</g>
</svg>
