<svg id="Layer_1" data-name="Layer 1" xmlns="http://www.w3.org/2000/svg" xmlns:xlink="http://www.w3.org/1999/xlink" viewBox="0 0 512 512"><defs><style>.cls-1{fill:none;}.cls-2{clip-path:url(#clip-path);}.cls-3{fill:#fff;}</style><clipPath id="clip-path"><rect class="cls-1" width="512" height="512"/></clipPath></defs><title>icon-fb</title><g class="cls-2"><path class="cls-3" d="M448,0H64A64.06,64.06,0,0,0,0,64V448a64.06,64.06,0,0,0,64,64H256V336H192V256h64V192a96,96,0,0,1,96-96h64v80H384c-17.66,0-32-1.66-32,16v64h80l-32,80H352V512h96a64.06,64.06,0,0,0,64-64V64A64.06,64.06,0,0,0,448,0"/></g></svg>