<?xml version="1.0" encoding="utf-8"?>
<!-- Generator: Adobe Illustrator 23.0.5, SVG Export Plug-In . SVG Version: 6.00 Build 0)  -->
<svg version="1.1" id="Capa_1" xmlns="http://www.w3.org/2000/svg" xmlns:xlink="http://www.w3.org/1999/xlink" x="0px" y="0px"
	 viewBox="0 0 353.1 474.9" style="enable-background:new 0 0 353.1 474.9;" xml:space="preserve">
<path d="M251.1,214.3c-0.6-0.3-1.1-0.5-1.7-0.8c-0.2-0.1-0.4-0.2-0.6-0.3c-2-0.9-4.1-1.8-6.1-2.7c29.9-21,49.5-55.7,49.5-94.9
	C292.2,51.9,240.3,0,176.5,0S60.7,51.9,60.7,115.8c0,39.2,19.6,74,49.6,94.9c-2,0.8-4,1.7-6,2.6c-0.2,0.1-0.4,0.2-0.6,0.3
	c-0.6,0.3-1.1,0.5-1.7,0.8C41.8,242.5,0,303.6,0,374.3V458c0,9.3,7.5,16.9,16.9,16.9h50.7h217.9h50.7c9.3,0,16.9-7.5,16.9-16.9
	v-83.7C353.1,303.6,311.3,242.5,251.1,214.3z M94.4,115.8c0-45.2,36.8-82.1,82.1-82.1c45.2,0,82.1,36.8,82.1,82.1
	c0,45.2-36.8,82.1-82.1,82.1C131.2,197.8,94.4,161,94.4,115.8z M319.4,441.2h-33.9H67.6H33.7v-66.9c0-44.4,20.4-84.2,52.4-110.4
	l0.2,0.3c10.9-9.1,22.9-16.4,35.7-21.8c0.6-0.3,1.3-0.5,1.9-0.8c0.1-0.1,0.3-0.1,0.4-0.2c11.8-4.6,24.3-7.8,37.4-9.1
	c0.2,0,0.4,0,0.6-0.1c0.9-0.1,1.7-0.2,2.6-0.2c0.4,0,0.9-0.1,1.3-0.1c0.6,0,1.3-0.1,1.9-0.1c0.6,0,1.1-0.1,1.7-0.1
	c0.6,0,1.1,0,1.7-0.1c0.6,0,1.1,0,1.7-0.1c0.8,0,1.6,0,2.5,0c0.3,0,0.6,0,0.9,0c0.3,0,0.6,0,0.9,0c0.8,0,1.6,0,2.5,0
	c0.6,0,1.1,0,1.7,0.1c0.6,0,1.1,0,1.7,0.1c0.6,0,1.1,0.1,1.7,0.1c0.6,0,1.3,0.1,1.9,0.1c0.4,0,0.9,0.1,1.3,0.1
	c0.9,0.1,1.7,0.1,2.6,0.2c0.2,0,0.4,0,0.6,0.1c13.1,1.3,25.6,4.5,37.4,9.1c0.1,0.1,0.3,0.1,0.4,0.2c0.7,0.3,1.3,0.5,1.9,0.8
	c12.8,5.4,24.8,12.6,35.7,21.8l0.2-0.3c31.9,26.2,52.4,66,52.4,110.4V441.2z"/>
</svg>
