<?xml version="1.0" encoding="utf-8"?>
<!-- Generator: Adobe Illustrator 23.0.5, SVG Export Plug-In . SVG Version: 6.00 Build 0)  -->
<svg version="1.1" id="Capa_1" xmlns="http://www.w3.org/2000/svg" xmlns:xlink="http://www.w3.org/1999/xlink" x="0px" y="0px"
	 viewBox="0 0 814.2 661.5" style="enable-background:new 0 0 814.2 661.5;" xml:space="preserve">
<path d="M585.2,315.5c-15.3-5.1-30.5-10.2-40.7-10.2H407.1v-50.9h152.7c0-30.5-20.4-50.9-50.9-50.9H305.3
	c0,30.5,20.4,50.9,50.9,50.9v50.9c-25.4,0-50.9-10.2-61.1-30.5l-56-91.6c-15.3-20.4-35.6-30.5-56-30.5h-30.5V117
	c0-15.3-5.1-25.4-10.2-40.7l-15.3-35.6C111.9,15.3,81.4,0,50.9,0H0l254.4,356.2c20.4,30.5,56,50.9,91.6,50.9h61.1V458h-50.9v101.8
	h-30.5c-45.8,0-91.6,20.4-122.1,50.9l0,0h-50.9v50.9h559.7v-50.9h-50.9c-30.5-30.5-76.3-50.9-122.1-50.9h-30.5V458H458v-50.9h81.4
	c10.2,0,25.4,5.1,35.6,10.2l86.5,45.8c45.8,25.4,101.8,25.4,147.6,0h5.1C814.2,463.1,585.2,315.5,585.2,315.5z"/>
</svg>
