<svg id="Layer_1" data-name="Layer 1" xmlns="http://www.w3.org/2000/svg" xmlns:xlink="http://www.w3.org/1999/xlink" viewBox="0 0 517.01 487.49"><defs>
<style>.cls-1{fill:none;}.cls-2{clip-path:url(#clip-path);}</style>
<clipPath id="clip-path" transform="translate(0 0)"><rect class="cls-1" width="517.01" height="487.49"/></clipPath>
</defs><title>icon-cleaning</title><g class="cls-2">
<path d="M459.44,17.89C419.73-5,365-6,316.59,15.38c-44.77,19.78-77,63.38-96.12,96.14a19.07,19.07,0,0,0-17,33c-1.74,3.87-2.8,6.48-3.2,7.49L107.61,355.51A19.09,19.09,0,0,0,91.14,390l.63.32L70.92,436.09H19.13a19.13,19.13,0,1,0,0,38.25h95.62a19.13,19.13,0,1,0,0-38.25H113L126.21,407a19,19,0,0,0,15.61-34.27l96-210.9a19.06,19.06,0,0,0,17.39-33.9c16.36-27.57,42.56-62.37,76.84-77.51,36.85-16.29,79.35-16,108.25.65,21.26,12.27,33.47,31.78,36.32,58,5.34,49.14.81,82.1-13.4,98a35.93,35.93,0,0,1-4.23,3.9v42.81a75.27,75.27,0,0,0,32.69-21.17c22.11-24.62,29.62-66.37,23-127.62-4.11-37.95-23.73-68.86-55.23-87" transform="translate(0 0)"/>
<path d="M405,340.46a82.37,82.37,0,0,1,34.9,7.8V197c0-10.57,1-9.56-9.56-9.56H392.86c-10.57,0-117.14,8.77-145.3,147.93l-18.06,115c0,10.57,8.56,23.91,19.12,23.91h90.76A82.94,82.94,0,0,1,405,340.46" transform="translate(0 0)"/>
<path d="M449.44,377.68a65.31,65.31,0,0,0-9.56-7.65,63.9,63.9,0,1,0,4.58,103.72A64.49,64.49,0,0,0,458,459.32,63.61,63.61,0,0,0,459,389.48a65.69,65.69,0,0,0-9.58-11.8M405,391.46a32.08,32.08,0,1,1-32.07,32.07A32.07,32.07,0,0,1,405,391.46" transform="translate(0 0)"/></g></svg>