<svg id="Layer_1" data-name="Layer 1" xmlns="http://www.w3.org/2000/svg" viewBox="0 0 466.01 382.65"><title>icon-front</title><path d="M0,180.82l0,22.79C0,210.27,5.52,216,12.44,217h1.49l329.22-.35,31.34,0-22.11,22.21L249,342.67a14.21,14.21,0,0,0,0,19.85l16.12,16.09a13.94,13.94,0,0,0,19.64,0L462,201a13.73,13.73,0,0,0,4-9.84v-.07a13.57,13.57,0,0,0-4-9.86L284.36,4a13.62,13.62,0,0,0-9.83-4,13.79,13.79,0,0,0-9.82,4.05L248.64,20.17a13.79,13.79,0,0,0-4,9.83,12.81,12.81,0,0,0,4.05,9.44L353.42,143.63l22.31,22.18-31.47,0-330,.36C6.66,166.21,0,173,0,180.82Z"/></svg>