<svg id="Layer_1" data-name="Layer 1" xmlns="http://www.w3.org/2000/svg" viewBox="0 0 204.45 204.44"><title>icon-crox</title><path d="M200.39,180.41l-72.53-72.53-5.66-5.66,5.66-5.66L200.39,24a14,14,0,0,0,4.06-10,14.12,14.12,0,0,0-24-10L107.88,76.59l-5.65,5.66-5.66-5.66L24,4.06A14,14,0,0,0,14.05,0a14,14,0,0,0-10,4.06,14.31,14.31,0,0,0,0,20L76.59,96.56l5.66,5.66-5.66,5.66L4.06,180.41a14,14,0,0,0,10,24,14,14,0,0,0,10-4.05l72.53-72.54,5.66-5.65,5.65,5.65,72.54,72.54a14.33,14.33,0,0,0,20,0A14.33,14.33,0,0,0,200.39,180.41Z"/></svg>