<?xml version="1.0" encoding="utf-8"?>
<!-- Generator: Adobe Illustrator 23.0.5, SVG Export Plug-In . SVG Version: 6.00 Build 0)  -->
<svg version="1.1" id="Layer_1" xmlns="http://www.w3.org/2000/svg" xmlns:xlink="http://www.w3.org/1999/xlink" x="0px" y="0px"
	 viewBox="0 0 502.1 479.9" style="enable-background:new 0 0 502.1 479.9;" xml:space="preserve">
<path d="M495.1,211.4L266.3,6.9c-0.6-0.6-1.2-1.1-1.9-1.5c-3.9-3.5-8.9-5.4-14.2-5.4C245,0,239.9,1.9,236,5.4L7.1,210.1
	c-8.8,7.8-9.6,21.4-1.8,30.3l0,0l0,0c4.1,4.6,10,7.2,16.1,7.2c5.3,0,10.4-1.9,14.3-5.4l27.9-25v96.1v124.6c0,23.2,18.8,42,42,42h0.8
	h0.8h70.6c22,0,39.9-17.9,39.9-39.9V321.8h66.7V440c0,22,17.9,39.9,39.9,39.9h72.2c23.6,0,42-22.2,42-50.6V318.1v-34v-65.6l27.9,25
	c4,3.5,9.1,5.4,14.3,5.4c6.1,0,12-2.6,16-7.1l0,0l0.1-0.1C504.5,232.8,503.7,219.2,495.1,211.4z M287.5,278.8h-72.9
	c-22,0-39.9,17.9-39.9,39.9v118.2h-67.5h-0.6V313.2V206.4v-27.7L250.4,50.2L395.5,180v104v34v111.1c0,3.8-1,6.3-1.7,7.6h-66.4v-118
	C327.4,296.7,309.5,278.8,287.5,278.8z"/>
</svg>
