<svg id="Layer_1" data-name="Layer 1" xmlns="http://www.w3.org/2000/svg" xmlns:xlink="http://www.w3.org/1999/xlink" viewBox="0 0 512 512"><defs><style>.cls-1{fill:none;}.cls-2{clip-path:url(#clip-path);}.cls-3{fill:#ffd93b;}.cls-4{fill:#f4c534;}.cls-5{fill:#3e4347;}.cls-6{fill:#5a5f63;}</style><clipPath id="clip-path"><rect class="cls-1" width="512" height="512"/></clipPath></defs><title>iconDv</title><g class="cls-2"><path class="cls-3" d="M256,0C397.38,0,512,114.62,512,256S397.38,512,256,512,0,397.39,0,256,114.62,0,256,0"/><path class="cls-4" d="M512,256c0,141.44-114.64,256-256,256A255.48,255.48,0,0,1,56.72,416.72a254.65,254.65,0,0,0,160.72,56.72c141.36,0,256-114.56,256-256A254.65,254.65,0,0,0,416.72,56.72,255.72,255.72,0,0,1,512,256"/><path class="cls-5" d="M350.18,185.42A40.18,40.18,0,1,1,310,225.6a40.18,40.18,0,0,1,40.18-40.18"/><path class="cls-6" d="M358.38,215c-6.14-2.73-9.69-8.16-7.92-12.13s8.16-5,14.3-2.27,9.69,8.16,7.93,12.13-8.17,5-14.31,2.27"/><path class="cls-5" d="M161.82,185.42a40.18,40.18,0,1,1-40.17,40.18,40.18,40.18,0,0,1,40.17-40.18"/><path class="cls-6" d="M170,215c-6.14-2.72-9.69-8.15-7.93-12.13s8.17-5,14.31-2.26,9.69,8.15,7.92,12.12-8.16,5-14.3,2.27"/><path class="cls-5" d="M151.14,357.06a12,12,0,1,1,16.44-17.48,129.16,129.16,0,0,0,176.84,0,12,12,0,0,1,16.44,17.48c-58.8,55.36-150.92,55.36-209.72,0"/></g></svg>