<?xml version="1.0" encoding="utf-8"?>
<!-- Generator: Adobe Illustrator 23.0.5, SVG Export Plug-In . SVG Version: 6.00 Build 0)  -->
<svg version="1.1" id="Layer_1" xmlns="http://www.w3.org/2000/svg" xmlns:xlink="http://www.w3.org/1999/xlink" x="0px" y="0px"
	 viewBox="0 0 519 519" style="enable-background:new 0 0 519 519;" xml:space="preserve">
<path d="M504.8,378.7L441.1,315c-9.1-9.1-21.3-14.2-34.3-14.2c-13,0-25.2,5-34.3,14.2l-28.9,28.9c-5.8,5.8-13.5,8.9-21.6,8.9
	c-8.2,0-15.9-3.2-21.6-8.9L174.9,218.4c-11.9-11.9-11.9-31.3,0-43.3l28.9-28.9c9.1-9.1,14.2-21.3,14.2-34.2c0-13-5-25.2-14.2-34.4
	l-63.6-63.4C131.1,5,118.9,0,105.9,0C93,0,80.8,5,71.7,14.1L54.6,31l-6.1,6.1C17.2,68.4,0,110,0,154.4c0,44.3,17.2,86,48.5,117.2
	l198.7,198.8c31.3,31.3,73,48.6,117.2,48.6c44.3,0,85.9-17.3,117.2-48.6l23.1-23.1C523.7,428.3,523.7,397.6,504.8,378.7z
	 M398.7,341.2c2.2-2.2,5.1-3.4,8.1-3.4c3.1,0,6,1.2,8.1,3.4l63.7,63.7c4.5,4.5,4.5,11.8,0,16.3l-8.1,8.1l-79.9-79.9L398.7,341.2z
	 M89.7,48.4l8.1-8c2.2-2.2,5.1-3.4,8.1-3.4c3.1,0,6,1.2,8.2,3.4l63.6,63.4c2.2,2.2,3.4,5.1,3.4,8.1s-1.2,6-3.4,8.1l-8.1,8.1
	L89.7,48.4z M148.8,244.6l124.4,124.5v0l1.5,1.5c12.7,12.5,29.5,19.3,47.3,19.3c15.4,0,30.2-5.2,42.1-14.8l79.5,79.5
	c-22.6,17.7-50.7,27.5-79.3,27.5c-34.2,0-66.5-13.5-91-37.9L74.7,245.4C28.2,199,24,126.4,64.2,75.1l79.5,79.5
	C122.4,181.3,124.4,220.2,148.8,244.6z"/>
</svg>
