<?xml version="1.0" encoding="utf-8"?>
<!-- Generator: Adobe Illustrator 23.0.5, SVG Export Plug-In . SVG Version: 6.00 Build 0)  -->
<svg version="1.1" id="Capa_1" xmlns="http://www.w3.org/2000/svg" xmlns:xlink="http://www.w3.org/1999/xlink" x="0px" y="0px"
	 viewBox="0 0 331 452" style="enable-background:new 0 0 331 452;" xml:space="preserve">
<path d="M226,121c-8.3,0-15-6.7-15-15V0H15C6.7,0,0,6.7,0,15v422c0,8.3,6.7,15,15,15h301c8.3,0,15-6.7,15-15V121H226z M76,185.9h120
	c8.3,0,15,6.7,15,15s-6.7,15-15,15H76c-8.3,0-15-6.7-15-15S67.7,185.9,76,185.9z M196,331H76c-8.3,0-15-6.7-15-15s6.7-15,15-15h120
	c8.3,0,15,6.7,15,15S204.3,331,196,331z M261,258.5c0,8.3-6.7,15-15,15H76c-8.3,0-15-6.7-15-15c0,0,0-0.1,0-0.1s0-0.1,0-0.1
	c0-8.3,6.7-15,15-15h170c8.3,0,15,6.7,15,15C261,258.3,261,258.4,261,258.5C261,258.4,261,258.4,261,258.5z"/>
<polygon points="241,0 241,91 331,91 "/>
</svg>
