<svg xmlns="http://www.w3.org/2000/svg" width="66.563" height="66.57" viewBox="0 0 66.563 66.57">
  <defs>
    <style>
      .cls-1 {
        fill: #888;
        fill-rule: evenodd;
      }
    </style>
  </defs>
  <path id="emoji_copy" data-name="emoji copy" class="cls-1" d="M91.947,2882.88a33.285,33.285,0,1,0-33.284-33.29A33.291,33.291,0,0,0,91.947,2882.88Zm0-60.33A27.045,27.045,0,1,1,64.9,2849.59,27.044,27.044,0,0,1,91.947,2822.55Zm12.49,34.54,5.351,3.21a20.807,20.807,0,0,1-35.681,0l5.351-3.21A14.567,14.567,0,0,0,104.436,2857.09Zm-22.467-20.81a4.44,4.44,0,1,1-4.437,4.44A4.44,4.44,0,0,1,81.969,2836.28Zm20,0a4.44,4.44,0,1,1-4.438,4.44A4.44,4.44,0,0,1,101.969,2836.28Z" transform="translate(-58.656 -2816.31)"/>
</svg>
