<svg id="Layer_1" data-name="Layer 1" xmlns="http://www.w3.org/2000/svg" xmlns:xlink="http://www.w3.org/1999/xlink" viewBox="0 0 542.18 432.54"><defs><style>.cls-1{fill:none;}.cls-2{clip-path:url(#clip-path);}</style><clipPath id="clip-path" transform="translate(0 0)"><rect class="cls-1" width="542.18" height="432.55"/></clipPath></defs><title>icon-sell</title><g class="cls-2"><path d="M432.54,255.82a36.6,36.6,0,0,0-10.56-26L217.84,26Q207,15.12,188.72,7.57T155.32,0H36.55a35.13,35.13,0,0,0-25.7,10.85A35.13,35.13,0,0,0,0,36.55V155.32q0,15.13,7.56,33.4T26,217.56L230.12,422a35,35,0,0,0,25.69,10.56,36.58,36.58,0,0,0,26-10.56L422,281.51a35,35,0,0,0,10.56-25.69M117.2,117.2a35.19,35.19,0,0,1-25.84,10.71A36.57,36.57,0,0,1,54.82,91.36,36.57,36.57,0,0,1,91.36,54.82a36.57,36.57,0,0,1,36.55,36.54A35.21,35.21,0,0,1,117.2,117.2" transform="translate(0 0)"/><path d="M531.61,229.84,327.47,26Q316.63,15.14,298.35,7.57T265,0H201q15.12,0,33.4,7.57T263.52,26L467.66,229.84a36.53,36.53,0,0,1,10.57,26,35,35,0,0,1-10.57,25.69L333.47,415.7q8.58,8.85,15.13,12.85t16.85,4a36.56,36.56,0,0,0,26-10.56L531.61,281.51a35,35,0,0,0,10.57-25.69,36.53,36.53,0,0,0-10.57-26" transform="translate(0 0)"/></g></svg>