<?xml version="1.0" encoding="utf-8"?>
<!-- Generator: Adobe Illustrator 23.0.5, SVG Export Plug-In . SVG Version: 6.00 Build 0)  -->
<svg version="1.1" id="Capa_1" xmlns="http://www.w3.org/2000/svg" xmlns:xlink="http://www.w3.org/1999/xlink" x="0px" y="0px"
	 viewBox="0 0 515.8 516" style="enable-background:new 0 0 515.8 516;" xml:space="preserve">
<g>
	<path d="M230.2,330.2c-3.2,0-6.2,1.2-8.5,3.5c-4.7,4.7-4.7,12.3,0,17c2.3,2.3,5.3,3.5,8.5,3.5c3.2,0,6.2-1.2,8.5-3.5
		c4.7-4.7,4.7-12.3,0-17C236.4,331.4,233.4,330.2,230.2,330.2z"/>
	<path d="M299.9,0c-61.7,0-112,50.2-112,112c0,61.7,50.2,112,112,112s112-50.2,112-112C411.9,50.2,361.6,0,299.9,0z M299.9,199.9
		c-48.5,0-88-39.5-88-88c0-48.5,39.5-88,88-88s88,39.5,88,88C387.9,160.5,348.4,199.9,299.9,199.9z"/>
	<path d="M500.9,222.2c-7.5-6.4-17.2-9.9-27.1-9.9c-12.2,0-23.8,5.3-31.8,14.5l0,0l0,0l-55.9,57.5l-1.4,1.5l-1.4-1.4
		c-8-8-18.5-12.4-29.8-12.4H242.8h-0.4l-0.4-0.2c-15.9-6.5-32.7-9.8-50.1-9.8c-24.3,0-47.4,5.7-66.9,16.6
		c-19.5,10.9-35,26.3-46.2,46l-0.6,1.1l-1.3-0.1c-1.1-0.1-2.1-0.2-3.2-0.2c-8.5,0-16.5,3.3-22.6,9.4L3.5,382.4
		c-4.6,4.7-4.7,12.3,0,16.9l112.3,113.1c2.3,2.3,5.3,3.5,8.5,3.5c3.2,0,6.2-1.2,8.4-3.4l48.5-47.8c8-8,11.1-19.7,8.3-30.8l-0.3-1.1
		l0.8-0.8l8.7-8.4c5.2-5.1,12.1-7.8,19.4-7.8H351c24.1,0,46.8-9.2,64.1-26l0,0l0,0l0,0c0,0,0,0,0,0l0,0c0.5-0.5,3.3-3.8,16.9-20
		l0.3-0.3c12.6-15.1,34.8-41.6,73.7-88.1C520.9,263.7,518.6,237.1,500.9,222.2z M164.2,447.8l-38.5,37.9l-1.4,1.4l-1.4-1.4
		l-92.6-93.3l-1.4-1.4l1.4-1.4L68,351.7c1.5-1.5,3.5-2.3,5.6-2.3c1.5,0,3,0.4,4.3,1.2c0.1,0.1,0.2,0.1,0.2,0.1l0.2,0.1l0.1,0.1
		c0.8,0.7,4.2,4.1,16.8,16.7c12.3,12.3,32.8,32.9,68.9,68.9C167.2,439.6,167.3,444.7,164.2,447.8z M487.6,265.9L398,373L398,373
		l-0.1,0.1c-12.7,12.1-29.4,18.8-46.9,18.8H218.1c-13.5,0-26.4,5.2-36.1,14.6l-5.7,5.5l-1.4,1.4l-1.4-1.4l-73.4-73.4l-1.1-1.1
		l0.8-1.3c18.2-31.9,51.8-50.2,92.2-50.2c15,0,29.6,3,43.2,9c1.5,0.7,3.1,1,4.8,1h113.5c9.9,0,18,8.1,18,18c0,9.9-8.1,18-18,18
		h-81.6c-6.6,0-12,5.4-12,12c0,6.6,5.4,12,12,12h81.6c23.2,0,42-18.8,42-42c0-1.2-0.1-2.4-0.2-3.6l-0.1-0.9l0.6-0.7
		c18-18.5,31-31.8,40.4-41.5c21.9-22.5,23.6-24.2,23.9-24.6c3.4-4,8.4-6.4,13.8-6.4c4.2,0,8.4,1.5,11.6,4.2
		C493.1,246.9,494,258.3,487.6,265.9z"/>
	<path d="M329.9,132c0-17.6-14.4-32-32-32c-4.4,0-8-3.6-8-8c0-4.4,3.6-8,8-8c3,0,6.3,1.6,9.4,4.7c2.2,2.2,5.2,3.4,8.3,3.4
		c3.3,0,6.3-1.3,8.6-3.7c4.6-4.8,4.5-12.4-0.3-17c-4-3.8-8.3-6.8-12.9-8.7l-1.2-0.5v-1.3V52c0-6.6-5.4-12-12-12s-12,5.4-12,12v9v1.3
		l-1.2,0.5C273.3,68,265.9,79.4,265.9,92c0,17.6,14.4,32,32,32c4.4,0,8,3.6,8,8s-3.6,8-8,8c-3.7,0-7.7-2.4-11.4-6.8
		c-2.3-2.7-5.6-4.3-9.2-4.3c-2.8,0-5.6,1-7.7,2.8c-2.5,2.1-4,5-4.2,8.1c-0.3,3.2,0.7,6.3,2.8,8.8c4.8,5.7,10.5,10.1,16.6,12.6
		l1.2,0.5v1.3v8.9c0,6.6,5.4,12,12,12s12-5.4,12-12v-9v-1.3l1.2-0.5C322.5,155.9,329.9,144.5,329.9,132z"/>
</g>
</svg>
