<?xml version="1.0" encoding="utf-8"?>
<!-- Generator: Adobe Illustrator 23.0.5, SVG Export Plug-In . SVG Version: 6.00 Build 0)  -->
<svg version="1.1" id="Capa_1" xmlns="http://www.w3.org/2000/svg" xmlns:xlink="http://www.w3.org/1999/xlink" x="0px" y="0px"
	 viewBox="0 0 255.5 220.8" style="enable-background:new 0 0 255.5 220.8;" xml:space="preserve">
<g>
	<path d="M211.4,128.2c-5.2,0-9.5,4.3-9.5,9.5v64.1H53.6v-64.1c0-5.2-4.3-9.5-9.5-9.5s-9.5,4.3-9.5,9.5v73.6c0,5.2,4.3,9.5,9.5,9.5
		h167.2c5.2,0,9.5-4.3,9.5-9.5v-73.6C220.9,132.5,216.6,128.2,211.4,128.2z"/>
	<path d="M252.7,121L134.4,2.8C132.7,1,130.3,0,127.7,0c-2.5,0-4.9,1-6.7,2.8L2.8,121C1,122.8,0,125.2,0,127.7s1,4.9,2.8,6.7
		c1.8,1.8,4.2,2.8,6.7,2.8c2.5,0,4.9-1,6.7-2.8L127.7,22.9l111.5,111.5c1.8,1.8,4.2,2.8,6.7,2.8c2.5,0,4.9-1,6.7-2.8
		C256.4,130.7,256.4,124.7,252.7,121z"/>
</g>
</svg>
