<svg id="Layer_1" data-name="Layer 1" xmlns="http://www.w3.org/2000/svg" xmlns:xlink="http://www.w3.org/1999/xlink" viewBox="0 0 258.38 258.41"><defs><style>.cls-1{fill:none;}.cls-2{clip-path:url(#clip-path);}</style><clipPath id="clip-path" transform="translate(0 0)"><rect class="cls-1" width="258.38" height="258.41"/></clipPath></defs><title>icon-pencil2</title><g class="cls-2"><path d="M250,20.2,238.21,8.48a29,29,0,0,0-41,0l-10.6,10.59-2.83,2.83,2.83,2.83,47,47,2.83,2.83,2.83-2.83,10.6-10.59a29.08,29.08,0,0,0,0-41" transform="translate(0 0)"/><polygon points="178.19 33.19 175.36 30.37 172.53 33.19 26.71 179.03 23.88 181.85 26.71 184.68 73.73 231.71 76.56 234.54 79.39 231.71 225.22 85.88 228.05 83.05 225.22 80.22 178.19 33.19"/><polygon points="22.97 197.87 18.12 193.02 16.29 199.63 1.89 251.6 0 258.41 6.81 256.53 58.79 242.14 65.4 240.31 60.55 235.45 22.97 197.87"/></g></svg>