<svg id="Layer_1" data-name="Layer 1" xmlns="http://www.w3.org/2000/svg" xmlns:xlink="http://www.w3.org/1999/xlink" viewBox="0 0 480 480"><defs><style>.cls-1{fill:none;}.cls-2{clip-path:url(#clip-path);}</style><clipPath id="clip-path"><rect class="cls-1" width="480" height="480"/></clipPath></defs><title>icon-recomdation</title><g class="cls-2"><path d="M464,48H288V184a32,32,0,0,1-32,32H240v16h8a71.53,71.53,0,0,1,53.39,24h64.89a49.32,49.32,0,0,1,49.5,43.31,48.37,48.37,0,0,1-9.34,33.43C446,324.94,480,302.87,480,264V64a16,16,0,0,0-16-16M448,176a8,8,0,0,1-8,8H408a8,8,0,0,1-8-8,8,8,0,0,0-8,8v24a24,24,0,0,1-48,0V184a8,8,0,0,0-8-8h-8a24,24,0,0,1-24-24V112a24,24,0,0,1,24-24h72a8,8,0,0,1,8-8h32a8,8,0,0,1,8,8Z"/><path d="M184,104h-8a24,24,0,0,1-24-24V56a8,8,0,0,0-16,0V80a24,24,0,0,1-24,24v56h72a8,8,0,0,0,8-8V112a8,8,0,0,0-8-8"/><rect x="416" y="96" width="16" height="72"/><path d="M248,248H160.57A56.07,56.07,0,0,0,216,296h87.26A56,56,0,0,0,248,248"/><path d="M328,104a8,8,0,0,0-8,8v40a8,8,0,0,0,8,8h8a24,24,0,0,1,24,24v24a8,8,0,0,0,16,0V184a24,24,0,0,1,24-24V104Z"/><path d="M256,0H16A16,16,0,0,0,0,16V208c0,38.87,34,60.94,73.6,68.74a48.37,48.37,0,0,1-9.34-33.43A49.31,49.31,0,0,1,113.72,200H256a16,16,0,0,0,16-16V16A16,16,0,0,0,256,0M208,152a24,24,0,0,1-24,24H112a8,8,0,0,1-8,8H72a8,8,0,0,1-8-8V88a8,8,0,0,1,8-8h32a8,8,0,0,1,8,8,8,8,0,0,0,8-8V56a24,24,0,0,1,48,0V80a8,8,0,0,0,8,8h8a24,24,0,0,1,24,24Z"/><path d="M296,408a31.47,31.47,0,0,0-4,.25,24,24,0,0,1-27.67-19.66A23.48,23.48,0,0,1,264,384v-4.18a72.24,72.24,0,0,0,42.82-41,7.92,7.92,0,0,0-4.61-10.2,6.21,6.21,0,0,0-.61-.2,64.85,64.85,0,0,0,2.27-16.33H216a71.52,71.52,0,0,1-38.91-11.51A61.65,61.65,0,0,0,176,312.05a63.29,63.29,0,0,0,2.31,16.36,7.92,7.92,0,0,0-5.31,9.85c.06.18.12.37.19.55a72.23,72.23,0,0,0,42.81,41V384a24,24,0,0,1-23.41,24.58,23.53,23.53,0,0,1-4.59-.33A32,32,0,0,0,152.25,436a31.47,31.47,0,0,0-.25,4v40H328V440a32,32,0,0,0-32-32"/><rect x="80" y="96" width="16" height="72"/></g></svg>