<?xml version="1.0" encoding="utf-8"?>
<!-- Generator: Adobe Illustrator 23.0.5, SVG Export Plug-In . SVG Version: 6.00 Build 0)  -->
<svg version="1.1" id="Capa_1" xmlns="http://www.w3.org/2000/svg" xmlns:xlink="http://www.w3.org/1999/xlink" x="0px" y="0px"
	 viewBox="0 0 406 380" style="enable-background:new 0 0 406 380;" xml:space="preserve">
<g>
	<g>
		<path d="M289,56h-24V40c0-8.8-6-16-13.4-16H147.5c-7.4,0-13.5,7.2-13.5,16v16h-24V40c0-22.1,16.8-40,37.5-40h104.1
			C272.2,0,289,18,289,40V56z"/>
	</g>
	<path d="M406,105.2V148H0v-42.8C0,82.5,17.4,64,38.8,64h328.5C388.6,64,406,82.5,406,105.2z"/>
	<path d="M18,157v181.8c0,22.7,17.2,41.2,38.3,41.2h293.4c21.1,0,38.3-18.5,38.3-41.2V157H18z M248.6,264.9c3.3,6.8,5,14.4,5,21.9
		c0,16.1-7.8,31.4-20.8,40.9c-1.2,0.8-2.6,1.3-4,1.3c-0.8,0-1.7-0.2-2.5-0.5c-2.2-0.8-3.7-2.7-4.2-5c-3.6-17.4-11.6-30-19.1-30
		c-7.5,0-15.6,12.6-19.1,30c-0.5,2.3-2,4.1-4.2,5c-0.8,0.3-1.6,0.5-2.4,0.5c-1.4,0-2.8-0.5-4-1.3c-13-9.5-20.8-24.8-20.8-40.9
		c0-7.5,1.7-15.1,5-21.9c0.1-0.1,0.1-0.2,0.1-0.4c0-0.2,0-0.3-0.1-0.4c-12.7-21.3-14.1-40.9-3.8-51.2c4.5-4.5,10.9-6.9,18.5-6.9
		c7.7,0,16.5,2.4,26,7.1c1.5,0.8,3.3,1.1,5,1.1s3.5-0.4,5-1.1c9.5-4.7,18.3-7.1,26-7.1c7.6,0,14,2.4,18.5,6.9
		c10.3,10.3,8.8,29.9-3.8,51.2c-0.1,0.1-0.1,0.3-0.1,0.4C248.5,264.7,248.5,264.8,248.6,264.9z"/>
</g>
</svg>
