<?xml version="1.0" encoding="utf-8"?>
<!-- Generator: Adobe Illustrator 23.0.5, SVG Export Plug-In . SVG Version: 6.00 Build 0)  -->
<svg version="1.1" id="Capa_1" xmlns="http://www.w3.org/2000/svg" xmlns:xlink="http://www.w3.org/1999/xlink" x="0px" y="0px"
	 viewBox="0 0 400 444.8" style="enable-background:new 0 0 400 444.8;" xml:space="preserve">
<g>
	<path d="M389.9,284.6H314v158.8l86-0.4V294.9C400,289.3,395.5,284.8,389.9,284.6z M367,410.3c0,5.5-4.5,10-10,10
		c-5.5,0-10-4.5-10-10v-18.8c0-5.5,4.5-10,10-10c5.5,0,10,4.5,10,10V410.3z M367,340.1c0,5.5-4.5,10-10,10c-5.5,0-10-4.5-10-10
		v-18.7c0-5.5,4.5-10,10-10c5.5,0,10,4.5,10,10V340.1z"/>
	<path d="M102,180.6v263.7l195-0.9V180.6H102z M160.7,417.6h-18.5c-5.5,0-10-4.5-10-10c0-5.5,4.5-10,10-10h18.5c5.5,0,10,4.5,10,10
		C170.7,413.1,166.3,417.6,160.7,417.6z M160.7,370.6h-18.5c-5.5,0-10-4.5-10-10c0-5.5,4.5-10,10-10h18.5c5.5,0,10,4.5,10,10
		C170.7,366.1,166.3,370.6,160.7,370.6z M160.7,323.6h-18.5c-5.5,0-10-4.5-10-10c0-5.5,4.5-10,10-10h18.5c5.5,0,10,4.5,10,10
		C170.7,319.1,166.3,323.6,160.7,323.6z M160.7,276.6h-18.5c-5.5,0-10-4.5-10-10c0-5.5,4.5-10,10-10h18.5c5.5,0,10,4.5,10,10
		C170.7,272.1,166.3,276.6,160.7,276.6z M160.7,229.6h-18.5c-5.5,0-10-4.5-10-10c0-5.5,4.5-10,10-10h18.5c5.5,0,10,4.5,10,10
		C170.7,225.1,166.3,229.6,160.7,229.6z M253.6,419.6h-18c-5.5,0-10-4.5-10-10c0-5.5,4.5-10,10-10h18c5.5,0,10,4.5,10,10
		C263.6,415.1,259.1,419.6,253.6,419.6z M253.6,371.6h-18c-5.5,0-10-4.5-10-10c0-5.5,4.5-10,10-10h18c5.5,0,10,4.5,10,10
		C263.6,367.1,259.1,371.6,253.6,371.6z M253.6,323.6h-18c-5.5,0-10-4.5-10-10c0-5.5,4.5-10,10-10h18c5.5,0,10,4.5,10,10
		C263.6,319.1,259.1,323.6,253.6,323.6z M253.6,276.6h-18c-5.5,0-10-4.5-10-10c0-5.5,4.5-10,10-10h18c5.5,0,10,4.5,10,10
		C263.6,272.1,259.1,276.6,253.6,276.6z M253.6,229.6h-18c-5.5,0-10-4.5-10-10c0-5.5,4.5-10,10-10h18c5.5,0,10,4.5,10,10
		C263.6,225.1,259.1,229.6,253.6,229.6z"/>
	<path d="M10.1,216.6c-5.5,0-10.1,4.4-10.1,9.9v218.3l85-0.4V216.6H10.1z M51,410.3c0,5.5-4.5,10-10,10c-5.5,0-10-4.5-10-10v-18.8
		c0-5.5,4.5-10,10-10c5.5,0,10,4.5,10,10V410.3z M51,340.1c0,5.5-4.5,10-10,10c-5.5,0-10-4.5-10-10v-18.7c0-5.5,4.5-10,10-10
		c5.5,0,10,4.5,10,10V340.1z M51,269.8c0,5.5-4.5,10-10,10c-5.5,0-10-4.5-10-10V251c0-5.5,4.5-10,10-10c5.5,0,10,4.5,10,10V269.8z"
		/>
	<path d="M221.3,66.8c1.5,3.2,2.3,6.7,2.3,10.2c0,7.6-3.6,14.6-9.7,19.1c-0.4,0.3-1,0.4-1.5,0.2s-0.9-0.6-1-1.2
		c-2-9.9-6.6-16.5-11.4-16.5c-4.8,0-9.4,6.6-11.4,16.5c-0.1,0.5-0.5,1-1,1.2c-0.5,0.2-1.1,0.1-1.5-0.2c-6.1-4.5-9.7-11.5-9.7-19.1
		c0-3.5,0.8-7,2.3-10.2c0.1-0.3,0.2-0.6,0.2-1c0-0.4-0.1-0.8-0.3-1.1c-5.9-9.9-6.8-19-2.2-23.5c4.1-4.1,11.5-3.9,20.3,0.4
		c2.1,1,4.5,1,6.6,0c8.8-4.4,16.2-4.5,20.3-0.4c4.6,4.6,3.7,13.6-2.2,23.5c-0.2,0.3-0.3,0.7-0.3,1.1
		C221.1,66.2,221.1,66.5,221.3,66.8z"/>
	<path d="M306.5,82.6h-28.1c-0.1,0.7-0.2,1.5-0.4,2.2c-7,37.6-39.8,64.9-78,64.9c-38.2,0-71-27.3-78-64.9c-0.1-0.7-0.2-1.5-0.4-2.2
		H93.3c-5.5,0-10.3,4-10.3,9.5v65.4c0,5,4.1,9.1,9.1,9.1h214.9c5,0,9.1-4.1,9.1-9.1V92.2C316,86.9,311.7,82.6,306.5,82.6z"/>
	<path d="M266.9,59.6C263,26.1,234.5,0,200,0c-34.5,0-63,26.1-66.9,59.6c-0.3,2.5-0.5,5.1-0.5,7.7c0,4.2,0.4,8.3,1.1,12.3
		c5.8,31.3,33.3,55.1,66.2,55.1c32.9,0,60.4-23.8,66.2-55.1c0.7-4,1.1-8.1,1.1-12.3C267.3,64.7,267.2,62.2,266.9,59.6z M244.7,79.6
		c-5.4,19.6-23.3,34.1-44.7,34.1c-21.3,0-39.3-14.4-44.7-34.1c-1.1-3.9-1.7-8-1.7-12.3c0-2.6,0.2-5.2,0.7-7.7
		C158,37.7,177,21,200,21c23,0,42,16.7,45.7,38.6c0.4,2.5,0.6,5.1,0.6,7.7C246.3,71.6,245.8,75.7,244.7,79.6z"/>
</g>
</svg>
