<svg id="Layer_1" data-name="Layer 1" xmlns="http://www.w3.org/2000/svg" viewBox="0 0 341.33 385.67"><title>imageDv</title><path d="M106.67,86.67a42.67,42.67,0,1,0,42.66,42.66A42.66,42.66,0,0,0,106.67,86.67Z"/><path d="M323.81,0H17.53A17.53,17.53,0,0,0,0,17.53V368.14a17.53,17.53,0,0,0,17.53,17.53H323.81a17.52,17.52,0,0,0,17.52-17.53V17.53A17.52,17.52,0,0,0,323.81,0ZM101.12,239.84a35.63,35.63,0,0,0-14.05-8.58c-13.19-4.37-28.77-1.51-38.86,8.58l-5.54,5.53V42.67h256v138.7l-16.22-16.22a37.44,37.44,0,0,0-52.9,0L128,266.7Z"/></svg>