<svg id="Layer_1" data-name="Layer 1" xmlns="http://www.w3.org/2000/svg" xmlns:xlink="http://www.w3.org/1999/xlink" viewBox="0 0 400 464"><defs><style>.cls-1{fill:none;}.cls-2{clip-path:url(#clip-path);}</style><clipPath id="clip-path"><rect class="cls-1" width="400" height="464"/></clipPath></defs><title>inspection</title><g class="cls-2"><path d="M248.23,352a39,39,0,0,1,18.87-30.5A140.5,140.5,0,0,0,336,200a136,136,0,0,0-272,0,140.5,140.5,0,0,0,68.9,121.5A39,39,0,0,1,151.77,352H208v16H152v15.84h56v16H152V416h96V400H224V384h24V368H224V352ZM269,101.83A120.21,120.21,0,0,1,320,200H304a104.24,104.24,0,0,0-44.18-85.1ZM234.3,85a117.91,117.91,0,0,1,17.32,6.66l-6.9,14.4a104.51,104.51,0,0,0-15-5.76Z"/><path d="M152.8,432A40.07,40.07,0,0,0,192,464h16a40.07,40.07,0,0,0,39.2-32Z"/><rect x="192" width="16" height="32"/><rect x="61.87" y="53.89" width="16" height="32" transform="translate(-28.96 69.87) rotate(-45)"/><rect y="192" width="32" height="16"/><rect x="53.84" y="322.09" width="32" height="16" transform="translate(-212.95 146.07) rotate(-45)"/><rect x="322.03" y="314.11" width="16" height="32" transform="translate(-136.76 330.03) rotate(-45)"/><rect x="368" y="192" width="32" height="16"/><rect x="314.06" y="61.93" width="32" height="16" transform="translate(47.22 253.87) rotate(-45)"/></g></svg>