<?xml version="1.0" encoding="utf-8"?>
<!-- Generator: Adobe Illustrator 22.1.0, SVG Export Plug-In . SVG Version: 6.00 Build 0)  -->
<svg version="1.1" id="Layer_1" xmlns="http://www.w3.org/2000/svg" xmlns:xlink="http://www.w3.org/1999/xlink" x="0px" y="0px"
	 viewBox="0 0 836.4 941.8" style="enable-background:new 0 0 836.4 941.8;" xml:space="preserve">
<style type="text/css">
	.st0{clip-path:url(#SVGID_2_);fill:#EF8718;}
	.st1{fill:#FFFFFF;}
</style>
<g>
	<defs>
		<rect id="SVGID_1_" width="836.4" height="941.8"/>
	</defs>
	<clipPath id="SVGID_2_">
		<use xlink:href="#SVGID_1_"  style="overflow:visible;"/>
	</clipPath>
	<path class="st0" d="M836.4,418.2C836.4,187.2,649.2,0,418.2,0S0,187.2,0,418.2c0,185.2,120.4,342.3,287.2,397.3L418,941.8
		l130.4-126C715.6,761,836.4,603.7,836.4,418.2"/>
</g>
<g>
	<g>
		<path class="st1" d="M504.2,266.9h-24v-16c0-8.8-6-16-13.4-16H362.7c-7.4,0-13.5,7.2-13.5,16v16h-24v-16c0-22.1,16.8-40,37.5-40
			h104.1c20.6,0,37.4,18,37.4,40V266.9z"/>
	</g>
	<path class="st1" d="M621.2,316.1v42.8h-406v-42.8c0-22.7,17.4-41.2,38.8-41.2h328.5C603.8,274.9,621.2,293.4,621.2,316.1z"/>
	<path class="st1" d="M233.2,367.9v181.8c0,22.7,17.2,41.2,38.3,41.2h293.4c21.1,0,38.3-18.5,38.3-41.2V367.9H233.2z M463.8,475.8
		c3.3,6.8,5,14.4,5,21.9c0,16.1-7.8,31.4-20.8,40.9c-1.2,0.8-2.6,1.3-4,1.3c-0.8,0-1.7-0.2-2.5-0.5c-2.2-0.8-3.7-2.7-4.2-5
		c-3.6-17.4-11.6-30-19.1-30c-7.5,0-15.6,12.6-19.1,30c-0.5,2.3-2,4.1-4.2,5c-0.8,0.3-1.6,0.5-2.4,0.5c-1.4,0-2.8-0.5-4-1.3
		c-13-9.5-20.8-24.8-20.8-40.9c0-7.5,1.7-15.1,5-21.9c0.1-0.1,0.1-0.2,0.1-0.4c0-0.2,0-0.3-0.1-0.4c-12.7-21.3-14.1-40.9-3.8-51.2
		c4.5-4.5,10.9-6.9,18.5-6.9c7.7,0,16.5,2.4,26,7.1c1.5,0.8,3.3,1.1,5,1.1s3.5-0.4,5-1.1c9.5-4.7,18.3-7.1,26-7.1
		c7.6,0,14,2.4,18.5,6.9c10.3,10.3,8.8,29.9-3.8,51.2c-0.1,0.1-0.1,0.3-0.1,0.4C463.7,475.6,463.8,475.7,463.8,475.8z"/>
</g>
</svg>
