<svg id="Layer_1" data-name="Layer 1" xmlns="http://www.w3.org/2000/svg" xmlns:xlink="http://www.w3.org/1999/xlink" viewBox="0 0 122.78 120.03"><defs><style>.cls-1{fill:none;}.cls-2{clip-path:url(#clip-path);}</style><clipPath id="clip-path" transform="translate(0 0)"><rect class="cls-1" width="122.78" height="120.03"/></clipPath></defs><title>logout</title><g class="cls-2"><path d="M86,26.7V6a6,6,0,0,0-6-6H6A6,6,0,0,0,0,6V90.8a6.11,6.11,0,0,0,3.2,5.3l45.6,23.6a3,3,0,0,0,4.4-2.7V94H80a6,6,0,0,0,6-6V55.2H74V79a3,3,0,0,1-3,3H53.3V31.1a6.11,6.11,0,0,0-3.2-5.3L23.2,12H71a3,3,0,0,1,3,3V26.8H86Z" transform="translate(0 0)"/><path d="M101.4,16.9l19.5,19.5a6,6,0,0,1,0,8.7L101.4,64.6a6.1,6.1,0,0,1-8.8.1,6.38,6.38,0,0,1,.2-8.8l8.8-8.7H67.5a5.91,5.91,0,0,1-4.5-2,6.79,6.79,0,0,1,1.5-10.3,6.41,6.41,0,0,1,3-.8h34.1s-8.7-8.7-8.8-8.7c-2.3-2.3-2.6-6.4-.2-8.7a6.19,6.19,0,0,1,8.8.2" transform="translate(0 0)"/></g></svg>