<svg id="Capa_1" data-name="Capa 1" xmlns="http://www.w3.org/2000/svg" viewBox="0 0 606.45 471.38"><title>my-friends</title><path d="M204.79,470.84c-8.87-102,89.33-200,199.45-200.42,111.37-.41,210.38,97.26,201.67,200.42Z"/><path d="M522.66,117c.13,66.2-51.69,117.92-118,117.72-65-.19-116.48-51.72-116.67-116.88C287.82,51.64,339.49.05,406.08,0,470.85,0,522.53,51.84,522.66,117Z"/><path d="M262.1,167.31c.37,55.95-43.41,100.81-99.08,101.52-56.47.72-102.5-44.62-102.35-100.8C60.83,112.77,106,67.49,161.2,67.22S261.73,111.88,262.1,167.31Z"/><path d="M162.75,471.38H4.56c-15.12-41.82,8.63-107.19,52.22-144.3,49.59-42.23,121.66-50.7,174.05-21.54-15.22,25.87-33.43,50.5-44.82,78C174.87,410.39,170.68,440.16,162.75,471.38Z"/></svg>