<svg id="Layer_1" data-name="Layer 1" xmlns="http://www.w3.org/2000/svg" xmlns:xlink="http://www.w3.org/1999/xlink" viewBox="0 0 469.92 469.92"><defs><style>.cls-1{fill:none;}.cls-2{clip-path:url(#clip-path);}</style><clipPath id="clip-path" transform="translate(0 0)"><rect class="cls-1" width="469.92" height="469.92"/></clipPath></defs><title>my-post</title><g class="cls-2"><path d="M97.9,146.85a9.79,9.79,0,0,0-19.58,0v29.37H97.9V146.85Z" transform="translate(0 0)"/><path d="M176.22,186V146.85a9.8,9.8,0,0,0-9.79-9.79h-9.79V195.8h9.79a9.8,9.8,0,0,0,9.79-9.79" transform="translate(0 0)"/><path d="M430.76,78.32H239.38L214.85,6.63A9.77,9.77,0,0,0,205.59,0H39.16A39.2,39.2,0,0,0,0,39.16V352.44A39.2,39.2,0,0,0,39.16,391.6h189l27,72a9.8,9.8,0,0,0,9.17,6.35H430.76a39.2,39.2,0,0,0,39.16-39.16V117.48a39.2,39.2,0,0,0-39.16-39.16m-293.7,49a9.79,9.79,0,0,1,9.79-9.79h19.58a29.4,29.4,0,0,1,29.37,29.37V186a29.4,29.4,0,0,1-29.37,29.37H146.85a9.79,9.79,0,0,1-9.79-9.79ZM58.74,146.85a29.37,29.37,0,0,1,58.74,0v58.74a9.79,9.79,0,0,1-19.58,0V195.8H78.32v9.79a9.79,9.79,0,1,1-19.58,0ZM225.17,274.12H68.53a9.79,9.79,0,1,1,0-19.58H225.17a9.79,9.79,0,1,1,0,19.58M450.34,430.76a19.61,19.61,0,0,1-19.58,19.58H285.91l54.32-62.09a9.64,9.64,0,0,0,1.79-9.4c0-.1.14-.1.1-.2l-9-26.21h68.23a9.79,9.79,0,0,0,9.79-9.79V205.59a9.79,9.79,0,0,0-9.79-9.79H279.57L246.08,97.9H430.76a19.61,19.61,0,0,1,19.58,19.58Z" transform="translate(0 0)"/></g></svg>