<svg id="Layer_1" data-name="Layer 1" xmlns="http://www.w3.org/2000/svg" xmlns:xlink="http://www.w3.org/1999/xlink" viewBox="0 0 810.48 471.38"><defs><style>.cls-1{fill:none;}.cls-2{clip-path:url(#clip-path);}</style><clipPath id="clip-path" transform="translate(0 0)"><rect class="cls-1" width="810.48" height="471.38"/></clipPath></defs><title>my-request</title><g class="cls-2"><path d="M204.79,470.84c-8.87-102,89.33-200,199.45-200.42,111.37-.41,210.38,97.26,201.67,200.42Z" transform="translate(0 0)"/><path d="M522.66,117c.13,66.2-51.69,117.92-118,117.72-65-.19-116.48-51.72-116.68-116.88C287.82,51.64,339.49.05,406.08,0c64.77,0,116.45,51.84,116.58,117" transform="translate(0 0)"/><path d="M649.69,268.83c-55.8.25-100.63-43.85-101.11-99.49-.49-56.6,45-102.54,101-102.11,55.31.42,100.23,45.56,100.46,100.94.22,55.09-45,100.4-100.4,100.66" transform="translate(0 0)"/><path d="M262.1,167.31c.37,55.95-43.41,100.81-99.08,101.52-56.47.72-102.5-44.62-102.35-100.8C60.83,112.77,106,67.49,161.2,67.22s100.53,44.66,100.9,100.09" transform="translate(0 0)"/><path d="M162.75,471.38H4.56c-15.12-41.82,8.63-107.19,52.22-144.3,49.59-42.23,121.66-50.7,174.05-21.54-15.22,25.87-33.43,50.5-44.82,78-11.14,26.89-15.33,56.66-23.26,87.88" transform="translate(0 0)"/><path d="M575,306.43c60.5-27.14,116.32-24.23,168,12.61,51,36.4,72.12,87.66,66.66,151.66H644C641,408.06,619.6,353.46,575,306.43" transform="translate(0 0)"/></g></svg>