<svg id="Layer_1" data-name="Layer 1" xmlns="http://www.w3.org/2000/svg" xmlns:xlink="http://www.w3.org/1999/xlink" viewBox="0 0 512 512"><defs><style>.cls-1{fill:none;}.cls-2{clip-path:url(#clip-path);}</style><clipPath id="clip-path" transform="translate(0 0)"><rect class="cls-1" width="512" height="512"/></clipPath></defs><title>phone4</title><g class="cls-2"><path d="M498.81,377.78l-63.64-63.64c-17-17-46.64-17-63.64,0l-10.61,10.61L488.2,452l10.61-10.6a45,45,0,0,0,0-63.64" transform="translate(0 0)"/><path d="M339.12,345.37c-13.4,10.37-32.5,10-44.73-2.3L168.57,217.16c-12.26-12.26-12.67-31.38-2.3-44.73l-127-127c-54.63,63.68-52.5,159.64,7.8,219.93l199.1,199.19c57.86,57.86,152.64,65.53,219.93,7.8Z" transform="translate(0 0)"/><path d="M197.5,76.39,133.87,12.74c-17-17-46.64-17-63.65,0L59.61,23.36,186.9,150.63,197.5,140a45,45,0,0,0,0-63.63" transform="translate(0 0)"/></g></svg>