<svg id="Layer_1" data-name="Layer 1" xmlns="http://www.w3.org/2000/svg" xmlns:xlink="http://www.w3.org/1999/xlink" viewBox="0 0 498 515">
<defs><style>.cls-1{fill:none;}.cls-2{clip-path:url(#clip-path);}</style><clipPath id="clip-path" transform="translate(0)"><rect class="cls-1" width="498" height="515"/></clipPath></defs><title>plumber</title><g class="cls-2"><path d="M353,332.33H16a16,16,0,0,0-16,16H0a16,16,0,0,0,16,16H353a16,16,0,0,0,16-16h0a16,16,0,0,0-16-16" transform="translate(0)"/><path d="M477.25,0a20.75,20.75,0,0,0-20.76,20.76V71.63h-228a64.07,64.07,0,0,0-64,64v43.93H116a88,88,0,0,0-88,88v47.77H341V267.56a88,88,0,0,0-88-88H204.5V135.63a24,24,0,0,1,24-24h228V162.5a20.76,20.76,0,1,0,41.51,0V20.76A20.75,20.75,0,0,0,477.25,0" transform="translate(0)"/><path d="M36,426.9a20,20,0,0,0,40,0c0-11-20-40-20-40s-20,29-20,40" transform="translate(0)"/><path d="M164.5,426.9a20,20,0,0,0,40,0c0-11-20-40-20-40s-20,29-20,40" transform="translate(0)"/><path d="M101.6,495a20,20,0,0,0,40,0c0-11-20-40-20-40s-20,29-20,40" transform="translate(0)"/><path d="M227.4,495a20,20,0,1,0,40,0c0-11-20-40-20-40s-20,29-20,40" transform="translate(0)"/>
<path d="M293,426.9a20,20,0,0,0,40,0c0-11-20-40-20-40s-20,29-20,40" transform="translate(0)"/></g></svg>