<svg id="Layer_1" data-name="Layer 1" xmlns="http://www.w3.org/2000/svg" xmlns:xlink="http://www.w3.org/1999/xlink" viewBox="0 0 512 512"><defs><style>.cls-1{fill:none;}.cls-2{clip-path:url(#clip-path);}</style><clipPath id="clip-path"><rect class="cls-1" width="512" height="512"/></clipPath></defs><title>Recom-drop-tick</title><g class="cls-2"><path d="M256,0C114.84,0,0,114.84,0,256S114.84,512,256,512,512,397.16,512,256,397.16,0,256,0M402.21,182.63,217.75,367.08a21.33,21.33,0,0,1-30.17,0L88.46,268a10.66,10.66,0,0,1,0-15.09l15.08-15.08a10.68,10.68,0,0,1,15.09,0l84,84L372,152.46a10.66,10.66,0,0,1,15.09,0l15.08,15.08a10.68,10.68,0,0,1,0,15.09"/></g></svg>