<svg id="Capa_1" data-name="Capa 1" xmlns="http://www.w3.org/2000/svg" viewBox="0 0 489.85 500.03"><title>service-directory</title><path d="M435.17,177.73l4.34,3.12h4.06V173l12.78-1.23,12.14,9h20l1.4-1.28q-3-10.09-6.77-19.82l-13,.22-6.53-7.18-1.27-11.53-6.69,3.65L452,159l-9.66-10.28-.39-9.72-9.33-8-3.43-3.42H418.35l3.4,9.64,13,7.26,2.26,2.4-2.83,1.41.13,7.64L428,158.57l-5.41-1.19-3.39-4.79,8.81.47,2.38-3.21-19.51-13.16-1.5-5.61-7.92,7.17-8-1.65-12.23,15.9-2.42,6.23-7.82.71-11.58.07-6.92-3.24-2-13.75,2.48-6.55,11.79-2.58L377.52,136l1.58-7.11-5.46-1.29,1.86-11.08,12.94-2,9-12.77,9.34-1.57,8.42,1.25h3.11l-1.72-12-10.24,4.13-3.6-9-6-.82-1.12-6.14,4.85-5.29,11.53-4.52,3-5.3A249.28,249.28,0,0,0,103.12,47.88l12.61-.1,5.62,3.11,10.59,2.28.82,4.17L149.6,58l-2.28-5.41-15-.42,3.52-3.31-1.23-4H121.13l14.75-11H150L156.65,43l11,.62,6.64-6.45,5,2.49-9.16,8.94s-12.66.23-12,.23,1,8.71,1,8.71l15.36-.42L176.18,53l10.58-.63L188,46.12l-6.23-1,2.08-5.61L188.63,38l16.62.83-9.16,8.31,1.48,6.44L207.12,55l-.62-11.63,9.14-4.78,16.21-1.87,23.47,10.39v8.94L262.8,58,259.05,65h-10.6l-3.14,8.1-24.19-5.71,19-10.14-7.25-6.16-16.41,2.08-1.43,1.48-.06,0-.25.35L210,59.91l-7.81.64.62,3.9,2.73,1.13-.11,1.28-6.36.9-.47,3.69-6.07.31-1.1-7.32-10.9,3.31-22.29,13,2.5,9.19L167,94l12.46,1.72v14.16l5.76-.92,5.3-11.06,13.25-4.2v-17l7.37-5.56L229,75.39,227.7,86.62h4.78l13.1-6.43.63,14.73,9.53,5.82-.4,8.74-9.13,3.11.62,2.89,11,5-.23,6-3.18.27a.63.63,0,0,0,0-.16l-13.89-4.28-.58-4.46h0l4.07-2.79V111l-4.37-1.1-1.09,3.75-7.66,1.19-.76-.25V115l-2.65.4L225.27,111l-2.5-1.1h-5.45l-2.48,2v4.52L219.5,118l4.61.66-1,.45-4.21,4.67L217,121.49,213,120.41l-11.08,10.42,1.45,1.18L187,141.07l-15.38,16-1.06,7.12-15.41,10.13L147.49,182l.85,15.37-10.6-4.93.08-9H108.33l-15.27,7.73-6.64,12.22-2.63,9.7,4.3,9.4,12,1.47,19.12-12.78,1.67,6.33-5.83,11,14.55,2.49,1.46,22.47,19.94,3.4,12.68-14.66,15.38,3.13,5.4,7.51,14.75-.87.41-4.35,8.11,3.93,9.14,14.33,15.79.21,5.82,10.2.83,12.46,17.46,6.64,22,.23,6.44,10.57,9.76,3.13-1.87,8.75-10.69,13.59-3.12,30.1-9.66,7.63L255.35,369l-4.77,8.31,3.54,15.61-15.6,19.93-5,9.16-14.86,7.13-9.78,1.48-.4,4.15,6.86,2-.82,4.47-6.15,5.91,3.73,4.71,7.39.21-.41,5.69-2,5.62-.63,4.57,10.94,9.2L226,481.92l-14.88-.29-14.8-12.91-11.54-20.27,1.61-19.57-8.73-11.64,3.54-19.73L176,396.07V353.26s-14.54-11-15.38-11-7.69-1.87-7.69-1.87l-1.46-8.08-18.9-23.7,1.87-8.51.62-13.93L148.14,277l-1.87-15.58L127.16,260l-15-17L101.61,240l-6.85-1.26.83-6.23-8.73-1.24v3.54L65,229.36l-8.78-13.43,3.58-6.52L46,189.25,43.64,174.5H38l1.86,14.33,9.56,14.75L48.4,209.4l-8.1-1.25-10-17V171.39L20,166.4V152.18A248.65,248.65,0,0,0,0,250C0,387.87,112.15,500,250,500c78.16,0,148-36.07,193.91-92.42h-8.25V391l-9.55-12.85v-20l-7.28-7.27-.64-8.31,9.26-17.66-17.53-31,2.05-21-15.78-1.63-5.82-5.82h-10.6l-5.4,5h-18.7l-.63,1.66H344.64l-23.87-27.2.2-21.2,3.95-1.45,1.46-8.1h-5.61l-2.29-8.52,27.62-19.93V171.6l13.52-7.51,5.48.54h11.12l8.71-4.67L413,157.77v14.34ZM365,88.59l2.28-3.52,8.22-1.67,2,10,4.37,7.06,2.9,3.33,5.3,2.07-5,5.93-9.67.93h-7.26l.82-8.62,6-1.25-.51-4.06L369,95.24,365,92.54l0-4Zm-13.49,15.58,5-8,6.72-1.56,4.79,2.08-.44,5.4-10.28,7.27h-5.81v-5.19ZM215.71,134.93l-5.21.43.28-3.62,2.33-2.9,3.13,2.45Zm18.25-6.4-3.56.31-.71,3.43L227,134l-4.39.37c-.16-1-.24-1.82-.24-1.82h-1.71v-3.69h7.16l1.48-3.82,2.85,0,3.25.67Z"/></svg>