<svg id="Layer_1" data-name="Layer 1" xmlns="http://www.w3.org/2000/svg" xmlns:xlink="http://www.w3.org/1999/xlink" viewBox="0 0 408.58 408.58"><defs><style>.cls-1{fill:none;}.cls-2{clip-path:url(#clip-path);}</style><clipPath id="clip-path" transform="translate(0 0)"><rect class="cls-1" width="408.58" height="408.58"/></clipPath></defs><title>tick2</title><g class="cls-2"><path d="M204.29,0C91.65,0,0,91.65,0,204.29S91.65,408.58,204.29,408.58s204.29-91.65,204.29-204.29S316.93,0,204.29,0M318.46,150.53,187.9,280.06a20.09,20.09,0,0,1-28.16.52l-69.12-63a20.76,20.76,0,0,1-1.53-28.67,20.26,20.26,0,0,1,28.67-1l54.78,50.18L289.28,121.34a20.64,20.64,0,1,1,29.18,29.19" transform="translate(0 0)"/></g></svg>